<?xml version="1.0" encoding="utf-8"?>
<!-- Generator: Adobe Illustrator 27.0.1, SVG Export Plug-In . SVG Version: 6.00 Build 0)  -->
<svg version="1.1" id="Ebene_1" xmlns="http://www.w3.org/2000/svg" xmlns:xlink="http://www.w3.org/1999/xlink" x="0px" y="0px"
	 viewBox="0 0 512 512" style="enable-background:new 0 0 512 512;" xml:space="preserve">
<style type="text/css">
	.st0{fill-rule:evenodd;clip-rule:evenodd;fill:#009999;}
	.st1{fill-rule:evenodd;clip-rule:evenodd;fill:#FFFFFF;}
	.st2{display:none;fill-rule:evenodd;clip-rule:evenodd;fill:#000F99;}
</style>
<g id="Ebene_2_00000177443215050625693470000000104316510681025712_">
	<g>
		<path class="st0" d="M74.6,467.4h170.5c5.4,0,9.7-4.4,9.7-9.7V268.4c0-5.4-4.4-9.7-9.7-9.7H74.6c-5.4,0-9.7,4.4-9.7,9.7v189.3
			C65,463,69.2,467.4,74.6,467.4z"/>
		<path class="st1" d="M155.1,340.3c-2.3-0.3-3.3-0.2-4.2,1.7c-1.8,3.8,4,6.3,5.5,2.8C157.3,342.4,155.9,341.5,155.1,340.3
			L155.1,340.3z M65,270.9L65,270.9L65,270.9L65,270.9L65,270.9z M254.4,455.3L254.4,455.3L254.4,455.3L254.4,455.3L254.4,455.3z
			 M65.2,455.4H65v-2.6C65,453.6,65.1,454.5,65.2,455.4L65.2,455.4z M65,451.1v-14.6c0.4,1.3,1.4,2.1,4.6,2.3
			c3.7,0.4,6.6-0.2,9.6-2.3c4.2-3,2.8-3.5,5-6.7c1.9-2.7,0.8-7.2-0.3-10.2c-2.2-5.7-9.6-9.7-15.3-8c-2.2,0.6-3.2,1.2-3.7,2.1v-14.1
			c3.7,1.5,11.9-2.9,22.3,5.5c1.8,1.5,8-1.6,10.3-2.4c4.7-1.6,6.7-1.6,11.7-0.5c7.9,1.7,16.4,1.9,24.3,3.5c2.9,0.6,9.2,1.3,12.2,1.6
			c7.2,0.5,3.5,5.7,5.5,8.3l14,0.4c-5.9-6.3-11.7-13-17.7-19.3c-4.5-4.6-4.5-7.6-11-6c-4.8,1.3-10.1,2.1-15,3.2
			c-8.7,2-22.6,7.3-27.6-2.5c-2.4-4.6-1.1-10.5,2.9-13.9c3.7-3.2,10.2-2.9,14.9-3.3c7.6-0.7,27.8-3.8,33.9-2.9
			c5.7,0.7,14.3,13.9,18.2,18.6c2.8,3.3,5.5,7,8.3,10.2c6.1,6.8,3.9,4.6,13.7,4.6c2.6,0,16.8-0.9,17.4,1.3c0.4,1.6-3.2,1.7-3.5,5.6
			c-0.3,4.9,2.9,4.1,3.5,6.1c-0.4,1.4-2.3,1.7-2.6,2.6h-0.1v5.5l-0.2,1.6l3.1,0.4c0.4,3.4-0.6,2.9-3.2,3.2l0.1,6.6l3.2,0.8l-0.1,2.3
			c-5.1,1-21.3,0.2-27.4,0.2c-8.8,0-3.6-3.4-10.7-3.3c-20.5,0.3-41.8-0.3-62.3,0c-2.6,0-4.4,0.4-4-2.9l2.6-0.5
			c0.8-6,1.4-6.1,0.2-12.2c-0.4-2-0.3-2-1.8-2.7c-1.2-0.5-1.7-2.2-0.4-3c1.7-1.1,45.5,0.9,48.4-0.4c-0.1-2.3-0.2-1.6-2.5-1.8
			c-1.4-0.2-2-0.4-3.7-0.5c-2.3-0.1-1.6-0.5-3.4-0.7c-1.3-0.2-2.8,0-4.1-0.3c-6.9-1.3-22.6-2.6-28.8-4.2c-3-0.8-9.6,1.7-12.3,3.3
			c0.2,0.7,2.3,5,2.9,6.6c2.3,8,0.6,15.5-4.2,22.4c-2.9,4.2-6.4,6.1-10.6,8.3c-6.2,3.3-14.4,0.9-16.2,1.5
			C65,450.7,65,450.9,65,451.1L65,451.1z M184.7,415.7c1,0.4,11.1,0.4,12.9,0.1l-0.1-8h-18.1c0,2,1.8,2.5,2.7,3.8
			C182.7,412.7,184,415.4,184.7,415.7L184.7,415.7z M170.8,430c-5.5-2.1-4.4-6.3-5.3-10.6h-14.8c-0.1,2.4,4.8,8,6.6,9.8
			c4.8,4.9,4.6,4.7,11.2,4.9c3.2,0.1,2.9,2.9,5,3.4l24.2-0.1l-0.2-7.2c-2.9-0.3-6.5,0-9.5,0c-4.6-0.1-2.5,1.5-5.5,4
			c-1.3-1.3-2.7-3.4-4.6-3.6C174.8,430.5,173.7,431.1,170.8,430L170.8,430z M186.8,427l10.8-0.1v-7.5h-11.4L186.8,427L186.8,427z
			 M166.6,446c0.5-6.1-4.2-3.6-4.6-2.8c-0.5,1.2-0.3,2.9,0.8,3.5C164.2,447.4,165.5,446.7,166.6,446L166.6,446z M169.4,447
			c3.3-7.6-7.7-11.5-10.5-5.3C155.5,449.6,166.6,453.7,169.4,447L169.4,447z M106.4,279.3c-21.4,6.2-12.3,38.8,9.2,32.2
			c9.1-2.8,13.3-11.2,11.4-20.3C125.2,283,114.5,277,106.4,279.3L106.4,279.3z M83.2,338.1c1-2.4,2-13.7,3.9-16.6
			c3.1-4.6,10.6-5.9,14.5-1.9c7.9,8.3-4.1,23-4.1,32.2c10.1,0,20.3-0.2,30.5-0.2c3.7,0,8.5,1.6,11,4.2c1.8,1.9,1.3,3.2,4.4,3.2
			c8.1-0.1,9.3,2.1,8.4-11.9l-23.4-0.2v-13.7c4.6-0.5,17.6,1.4,22.9,1.7c6,0.3,13,5.3,12.8,12.2l-8.7,0.1c-0.2,2.1,0,4.5-0.1,6.6
			c0,4.7,0.7,2.4,1.3,5.3c2.1,0.1,3.3,0.4,3.2,2.8h-15.5c-3.8,0.1,0,1.3-3.6,1.4c-6.2,0.3-12.7,0.9-18.9,1.3
			c-1.9,0.1-1.9,0.6-4.4,0.7c-3.4,0.1-11.4,0.4-14.2,0.9c-3.5,0.7-17.3,0.5-19,1.2l0.6,18.6l-9.7,0.4l-2.4-60.5
			c1.3-2.2,5.5-1.9,7.9-1.5c2,2.9,1.3,3,1.4,7C82.2,332.8,81.9,338,83.2,338.1z"/>
		<path class="st1" d="M230.6,453.2c8.8,0,16.1-7.2,16.1-16.1s-7.2-16.1-16.1-16.1s-16.1,7.2-16.1,16.1
			C214.5,446,221.7,453.2,230.6,453.2z"/>
	</g>
</g>
<g id="Ebene_4">
	<g>
		<path class="st0" d="M76.3,256.1h170.5c5.4,0,9.7-4.4,9.7-9.7V57.1c0-5.4-4.4-9.7-9.7-9.7H76.3c-5.4,0-9.7,4.4-9.7,9.7v189.3
			C66.7,251.7,70.9,256.1,76.3,256.1z"/>
		<path class="st1" d="M156.7,129c-2.3-0.3-3.3-0.2-4.2,1.7c-1.8,3.8,4,6.3,5.5,2.8C159,131.1,157.5,130.2,156.7,129L156.7,129z
			 M66.7,59.6L66.7,59.6L66.7,59.6L66.7,59.6L66.7,59.6z M256.1,244.1L256.1,244.1L256.1,244.1L256.1,244.1L256.1,244.1z
			 M66.9,244.1h-0.3v-2.6C66.7,242.3,66.7,243.2,66.9,244.1L66.9,244.1z M66.7,239.8v-14.6c0.4,1.3,1.4,2.1,4.6,2.3
			c3.7,0.4,6.6-0.2,9.6-2.3c4.2-3,2.8-3.5,5-6.7c1.9-2.7,0.8-7.2-0.3-10.2c-2.2-5.7-9.6-9.7-15.3-8c-2.2,0.6-3.2,1.2-3.7,2.1v-14.1
			c3.7,1.5,11.9-2.9,22.3,5.5c1.8,1.5,8-1.6,10.3-2.4c4.7-1.6,6.7-1.6,11.7-0.5c7.9,1.7,16.4,1.9,24.3,3.5c2.9,0.6,9.2,1.3,12.2,1.6
			c7.2,0.5,3.5,5.7,5.5,8.3l14,0.4c-5.9-6.3-11.7-13-17.7-19.3c-4.5-4.6-4.5-7.6-11-6c-4.8,1.3-10.1,2.1-15,3.2
			c-8.7,2-22.6,7.3-27.6-2.5c-2.4-4.6-1.1-10.5,2.9-13.9c3.7-3.2,10.2-2.9,14.9-3.3c7.6-0.7,27.8-3.8,33.9-2.9
			c5.7,0.7,14.3,13.9,18.2,18.6c2.8,3.3,5.5,7,8.3,10.2c6.1,6.8,3.9,4.6,13.7,4.6c2.6,0,16.8-0.9,17.4,1.3c0.4,1.6-3.2,1.7-3.5,5.6
			c-0.3,4.9,2.9,4.1,3.5,6.1c-0.5,2-3.8,1.8-2.2,3.7c3.2,0.6,7.2-0.3,10.3,0.5c3.8,1,5,2.1,7.9,3c1.4-2.5,1-21.5,0.8-25.9
			c-5.5-2.7,0.2-10.5,4.6-5.6c2.9,3.3,0,3.9-0.9,5.8c-0.5,1.3-0.3,15.1-0.3,17.6c0,3.2,0.6,5.7,0.6,8.3c-0.1,8.8-1.6,8.1,0.1,16.7
			l13.5,0.3v7h-22.2l0.3-7.2l3.2-0.2c2.1-1.6,0.7-10.5,0.5-13.3c-7.2-5.5-18.3-5-18.8-4.3l-0.4,3.2l3.1,0.4c0.4,3.4-0.6,2.9-3.2,3.2
			l0.1,6.6l3.2,0.8l-0.1,2.3c-5.1,1-21.3,0.2-27.4,0.2c-8.8,0-3.6-3.4-10.7-3.3c-20.5,0.3-41.8-0.3-62.3,0c-2.6,0-4.4,0.4-4-2.9
			l2.6-0.5c0.8-6,1.4-6.1,0.2-12.2c-0.4-2-0.3-2-1.8-2.7c-1.2-0.5-1.7-2.2-0.4-3c1.7-1.1,45.5,0.9,48.4-0.4
			c-0.1-2.3-0.2-1.6-2.5-1.8c-1.4-0.2-2-0.4-3.7-0.5c-2.3-0.1-1.6-0.5-3.4-0.7c-1.3-0.2-2.8,0-4.1-0.3c-6.9-1.3-22.6-2.6-28.8-4.2
			c-3-0.8-9.6,1.7-12.3,3.3c0.2,0.7,2.3,5,2.9,6.6c2.3,8,0.6,15.5-4.2,22.4c-2.9,4.2-6.4,6.1-10.6,8.3c-6.2,3.3-14.4,0.9-16.2,1.5
			C66.7,239.4,66.7,239.7,66.7,239.8L66.7,239.8z M186.4,204.5c1,0.4,11.1,0.4,12.9,0.1l-0.1-8h-18.1c0,2,1.8,2.5,2.7,3.8
			C184.4,201.4,185.7,204.2,186.4,204.5L186.4,204.5z M172.5,218.7c-5.5-2.1-4.4-6.3-5.3-10.6h-14.8c-0.1,2.4,4.8,8,6.6,9.8
			c4.8,4.9,4.6,4.7,11.2,4.9c3.2,0.1,2.9,2.9,5,3.4l24.2-0.1l-0.2-7.2c-2.9-0.3-6.5,0-9.5,0c-4.6-0.1-2.5,1.5-5.5,4
			c-1.3-1.3-2.7-3.4-4.6-3.6C176.5,219.2,175.4,219.8,172.5,218.7L172.5,218.7z M188.4,215.7l10.8-0.1v-7.5h-11.4L188.4,215.7
			L188.4,215.7z M168.3,234.7c0.5-6.1-4.2-3.6-4.6-2.8c-0.5,1.2-0.3,2.9,0.8,3.5C165.9,236.1,167.2,235.4,168.3,234.7L168.3,234.7z
			 M242.8,236.5c-0.4-1.2,0.7-4.6,2.9-4.9c8.2-1.3,5.3,11.4-1.1,7.3C243.8,238.4,242.9,236.8,242.8,236.5L242.8,236.5z M171.1,235.8
			c3.3-7.6-7.7-11.5-10.5-5.3C157.2,238.3,168.3,242.4,171.1,235.8L171.1,235.8z M108.1,68.1c-21.4,6.2-12.3,38.8,9.2,32.2
			c9.1-2.8,13.3-11.2,11.4-20.3C126.9,71.7,116.2,65.7,108.1,68.1L108.1,68.1z M84.9,126.9c1-2.4,2-13.7,3.9-16.6
			c3.1-4.6,10.6-5.9,14.5-1.9c7.9,8.3-4.1,23-4.1,32.2c10.1,0,20.3-0.2,30.5-0.2c3.7,0,8.5,1.6,11,4.2c1.8,1.9,1.3,3.2,4.4,3.2
			c8.1-0.1,9.3,2.1,8.4-11.9l-23.4-0.2V122c4.6-0.5,17.6,1.4,22.9,1.7c6,0.3,13,5.3,12.8,12.2L157,136c-0.2,2.1,0,4.5-0.1,6.6
			c0,4.7,0.7,2.4,1.3,5.3c2.1,0.1,3.3,0.4,3.2,2.8H146c-3.8,0.1,0,1.3-3.6,1.4c-6.2,0.3-12.7,0.9-18.9,1.3c-1.9,0.1-1.9,0.6-4.4,0.7
			c-3.4,0.1-11.4,0.4-14.2,0.9c-3.5,0.7-17.3,0.5-19,1.2l0.6,18.6l-9.6,0.6l-2.4-60.5c1.3-2.2,5.5-1.9,7.9-1.5c2,2.9,1.3,3,1.4,7
			C83.9,121.6,83.6,126.7,84.9,126.9z"/>
	</g>
</g>
<g id="Ebene_3">
	<g>
		<path class="st0" d="M266.9,467.4h170.5c5.4,0,9.7-4.4,9.7-9.7V268.4c0-5.4-4.4-9.7-9.7-9.7H266.9c-5.4,0-9.7,4.4-9.7,9.7v189.3
			C257.2,463,261.6,467.4,266.9,467.4z"/>
		<path class="st1" d="M395.7,336.1c3.2-2.2,6.5,2.9,3.2,5.3C396.1,343.3,391.7,338.8,395.7,336.1L395.7,336.1z M407.5,342.3
			c0.3-4.4-3.4-8.1-6.8-10.4c-4-2.7-9.7-2.2-14.6-2.4c-1.8-0.1-15.7-1.2-16.1-1c-0.6,0.3-3.2,12.2-3.2,13.8l28.6,0.2
			c0.3,3.3,1.3,11.2-2.2,11.8c-2.4,0.4-13-0.4-14.2,0.2c-1,0.4-0.7,2-0.1,2.4c0.6,0.4,2.4,0.3,3.4,0.2c5.4,0,17.3,0.4,21.2-0.1
			c0.2-3.6-3.8-1.6-4.5-5.1c-0.3-1.1-0.2-8.4,0-9.6H407.5z"/>
		<path class="st1" d="M376.7,401.4c2.2-3.8-0.4-12.2,0-16.2l8.6-0.2c0.5,1.5-0.8,13.3-0.9,15.8c-0.1,1.9-2.8,12-4,13.1
			c-1.4,0.2-9.4-5.5-9.6-6.4c-0.6-2.5,0.5-11.1-0.4-15.6c-0.9-4.3-2.9-11.8,2.1-2.9C374.3,392.3,375.5,399.9,376.7,401.4
			L376.7,401.4z M344.2,369.6c0.4-4.7,11.9,10.2,12.5,11.4c1.5,2.9,2.9,5.3,4.1,8.3c0.5,1.4,1.7,10.3,1.2,11.4
			c-0.5,1.2-6.2-3.2-7.4-4.1c-2.1-1.4-3-6-4-8.5C350,386.7,344.2,369.8,344.2,369.6L344.2,369.6z M395.6,430.8
			c2.4,0.2,13.8,11.6,17.8,10.5c1.4-0.4,8-3.7,9.7-4.5c3.9-1.9,6.2-6.3,1.5-8.1c-6.8-2.7-12.8,9-19.7,3.3c-2.5-2.1-7.1-3.8-7.6-6.7
			c-0.4-1.9,1.7-9.3,2.3-11.7c2-7.5,3.8-15.5,5.6-23.1c1.6-6.6,5.5-17.2,0.4-22.9c-4.1-4.7-19.1-3.1-25.5-3.1
			c-4.8,0-9.6-0.1-14.4,0.1c-6.9,0.2-5.9-0.9-11.4-2.8c-1.9-0.6-3.8-0.8-5.6-1.6c-1.6-0.7-2.9-1.7-4.6-2.4c-4.6-1.9-6.4-2.8-4.7-8.3
			c2.2-7.2,4.6-14.7,7-21.7c1.3-3.9,3.3-7.2,1.7-11.4c-1.4-3.7-4.3-6.2-8.3-6.3c-10.4-0.4-10,9.6-11.7,16.9c-0.9,3.9-1.6,8-2.4,11.9
			c-0.5,2.7-2.2,9.8-2.4,12.1c-0.4,4.4,3.3,6.5-1.9,8.8c-1.3,0.5-4.3,1.7-5,2.8c-0.6,0.8,0.7,0.9,0.8,1.3c0,0-6.6,4.5-7.7,5.4
			c-2.9,2.4-4.6,4.8-6.1,8.3c-1.9,4.3-6.3,21.4-2.8,24c0.5-0.9,0.4-5.8,3.5-11.6c1.8-3.5,3-6,6-9.2c3.5-3.8,14.1-11.9,19.4-10.8
			c1.1,1.6,3.9,10,5,12.6c3.3,7.9,5.2,17.7,14.3,20.1c2.4,0.6,5.9-0.6,7.7,0.9c1.3,1.2,4.3,2.7,4.9,3.8c-0.1,4.6-3.8,11.8-6.2,15.1
			c-1.6,2.3-3,3.8-4.8,5.8c-1.5,1.6-5.1,3.5-5.7,4.6c2,1.1,17.9-5.8,21.7-11.4c1.9-2.7,2.1-6.4,3.4-8.4l8.1,5.6
			c-0.7,3.8-22,26.7-33.3,24.8c0.4-1.2,5.7-2.2,6.4-4.5c-0.7-0.1-6,1.9-11.4,1.9c-2.5,0-22-2.6-22.9-3.3c-4.8-3.8-6.6-6.3-10.4-9.1
			c-2-1.5-7-8.8-8.5-11.1c-4.6-7.1-5.7-19.5-6-19.9c-0.7,1.3-1.3,10.9-1,13.4c0.2,2.1,2.6,11.2,2.5,11.9c-3.3-2.5-7.1-15.2-7.3-19.2
			c-0.4-7.8,0.4-14.3,4.5-21.2c3-5.2,7.4-10.5,10.8-15.8c1.4-2.1,4.4-5.2,6.3-7.1c1.4-1.4,6.9-4.9,7.2-5.7
			c-17.9,4.6-29.2,14.8-35.7,32c-3.4,9.2-2.9,20.3,0.2,29.4c3.2,9.6,6.3,13.6,13.4,20.6c2.9,2.9,6.5,5,10.2,6.8
			c3.9,1.9,8.8,3,12,4.9c8.8,5.1,17.8,6.5,27.9,6.1c12.2-0.5,25.2-8.5,32.8-18.1c1.1-1.3,6.2-10.5,6.6-10.4l-0.9,16.4
			c0.6,1.3,4.6,0.5,5.7,0.2c2.8-0.8,2.4-0.7,4.2-2.4C395.2,435.9,394,435.8,395.6,430.8z"/>
		<path class="st1" d="M352.7,272.9c-22,5-13.6,37.5,7.4,32.3C381.3,299.9,373.8,268.1,352.7,272.9z"/>
	</g>
</g>
<rect x="7.6" y="12.4" class="st2" width="492" height="492"/>
</svg>
