<svg version="1.1" xmlns="http://www.w3.org/2000/svg" xmlns:xlink="http://www.w3.org/1999/xlink">
  <defs>
    <style>
      g {
        display: none;
      }
      g:target,
      g:target g {
        display: inline;
      }
      .red {
        color: #d21d2a;
      }
      .white {
        color: #ffffff;
      }
      .blue{
        color: #003398;
      }
      .gray {
        color: #555555;
      }
      .secondary {
        color: #E1E2E5;
      }
      .transparent {
        color: transparent;
      }
    </style>
    <symbol id="facebook" viewBox="0 0 105.9 105.9">
      <title>Facebook</title>
      <path fill="currentColor" d="M0.2,57.9c2.4,27.4,27.2,50.5,57.6,47.8c27.5-2.5,50.5-27,47.8-57.6c-2.4-27.5-27-50.5-57.6-47.8
      	C20.5,2.6-2.4,27.1,0.2,57.9 M54.8,24.5c1.1-1.1,11.1-0.5,12.3-0.4l0.1,8.2c0,3.2,0,1.8-0.4,2.3c-10.3-0.1-9.2-1.1-9.3,9.3l9.7,0
      	l-1.1,10.8l-8.7,0l0,30.7l-12.8,0l-0.1-30.7l-6,0L38.8,44l5.9-0.1c-0.1-4.5-0.4-9.6,1.4-13.4C47.4,27.7,50.9,24.3,54.8,24.5z"/>
      <path fill="currentColor" d="M148.7,57.9c2.5,29,28.8,50.4,57.7,47.8c28.9-2.6,50.3-28.5,47.8-57.4c-2.5-29.2-28.5-50.7-57.6-48.1
      	C167.3,2.8,146.2,28.9,148.7,57.9 M181.5,22.9c2.8-0.4,25.2-0.1,30-0.1c4,0,10.1-0.6,13.7,1.3c3.3,1.7,5.7,5,6.3,8.8
      	c0.4,2.9,0.1,25.2,0.1,30.2c0,4.1,0.6,10.1-1.3,13.7c-1.7,3.4-5,5.7-8.8,6.3c-2.8,0.4-25.3,0.1-30.1,0.1c-4,0-10.1,0.6-13.7-1.3
      	c-3.3-1.7-5.7-5-6.3-8.8c-0.4-2.9-0.1-25.3-0.1-30.2C171.3,35.8,169.8,24.7,181.5,22.9z"/>
      <path fill="currentColor" d="M225.6,46.8l-8.7,0c0.6,4.3,2.6,9.6-2,15.7c-9.6,12.6-27.3,6.6-29.6-6.8c-0.7-4.2,0.3-5.3,0.8-8.9l-8.7,0
      	c-0.3,3-0.4,24.9,0.3,26.8c1.6,4.2,6.3,3.6,9.9,3.6h27.2c3.8,0,8.6,0.7,10.5-3.4C226,71.9,225.9,49.9,225.6,46.8"/>
      <path fill="currentColor" d="M200.1,42.5c-14.1,2.1-11,22.7,2.8,21c5.9-0.8,9.9-6.4,9-12.3C211,45.7,205.6,41.6,200.1,42.5"/>
      <path fill="currentColor" d="M224.6,39.4l0-9.5l-9.6,0c-0.9,2-0.2,7.4-0.3,9.9C217.1,39.7,222.7,40,224.6,39.4"/>
    </symbol>
    <symbol id="youtube" viewBox="0 0 50 35.156">
      <title>Youtube</title>
      <path
        fill="currentColor"
        d="M48.955 5.501a6.283 6.283 0 00-4.42-4.449C40.635 0 25 0 25 0S9.365 0 5.465 1.052a6.283 6.283 0 00-4.42 4.449C0 9.426 0 17.614 0 17.614s0 8.188 1.045 12.113c.575 2.165 2.269 3.799 4.42 4.378C9.365 35.156 25 35.156 25 35.156s15.635 0 19.535-1.052c2.151-.579 3.846-2.213 4.42-4.378C50 25.802 50 17.614 50 17.614s0-8.188-1.045-12.113zM19.886 25.048V10.179l13.068 7.435-13.068 7.434z"/>
    </symbol>
    <symbol id="instagram" viewBox="0 0 105.9 105.9">
      <title>Instagram</title>
      <path fill="currentColor" d="M-148.3,57.9c2.4,27.4,27.2,50.5,57.6,47.8c27.5-2.5,50.5-27,47.8-57.6c-2.4-27.5-27-50.5-57.6-47.8
      	C-128,2.6-150.9,27.1-148.3,57.9 M-93.7,24.5c1.1-1.1,11.1-0.5,12.3-0.4l0.1,8.2c0,3.2,0,1.8-0.4,2.3c-10.3-0.1-9.2-1.1-9.3,9.3
      	l9.7,0l-1.1,10.8l-8.7,0l0,30.7l-12.8,0l-0.1-30.7l-6,0l0.1-10.8l5.9-0.1c-0.1-4.5-0.4-9.6,1.4-13.4
      	C-101.1,27.7-97.6,24.3-93.7,24.5z"/>
      <path fill="currentColor" d="M0.2,57.9c2.5,29,28.8,50.4,57.7,47.8c28.9-2.6,50.3-28.5,47.8-57.4C103.2,19.1,77.2-2.4,48,0.2
      	C18.9,2.8-2.3,28.9,0.2,57.9 M33,22.9c2.8-0.4,25.2-0.1,30-0.1c4,0,10.1-0.6,13.7,1.3c3.3,1.7,5.7,5,6.3,8.8
      	c0.4,2.9,0.1,25.2,0.1,30.2c0,4.1,0.6,10.1-1.3,13.7c-1.7,3.4-5,5.7-8.8,6.3c-2.8,0.4-25.3,0.1-30.1,0.1c-4,0-10.1,0.6-13.7-1.3
      	c-3.3-1.7-5.7-5-6.3-8.8c-0.4-2.9-0.1-25.3-0.1-30.2C22.8,35.8,21.3,24.7,33,22.9z"/>
      <path fill="currentColor" d="M77.1,46.8l-8.7,0c0.6,4.3,2.6,9.6-2,15.7c-9.6,12.6-27.3,6.6-29.6-6.8c-0.7-4.2,0.3-5.3,0.8-8.9l-8.7,0
      	c-0.3,3-0.4,24.9,0.3,26.8c1.6,4.2,6.3,3.6,9.9,3.6h27.2c3.8,0,8.6,0.7,10.5-3.4C77.5,71.9,77.5,49.9,77.1,46.8"/>
      <path fill="currentColor" d="M51.6,42.5c-14.1,2.1-11,22.7,2.8,21c5.9-0.8,9.9-6.4,9-12.3C62.5,45.7,57.2,41.6,51.6,42.5"/>
      <path fill="currentColor" d="M76.1,39.4l0-9.5l-9.6,0c-0.9,2-0.2,7.4-0.3,9.9C68.6,39.7,74.2,40,76.1,39.4"/>
    </symbol>
    <symbol id="twitter" viewBox="0 0 150 150">
      <title>Twitter</title>
      <path
        fill="currentColor"
        d="M134.581 44.448c.095 1.332.095 2.665.095 3.998 0 40.64-30.932 87.468-87.468 87.468-17.417 0-33.598-5.045-47.208-13.801 2.475.285 4.854.381 7.424.381 14.372 0 27.602-4.854 38.166-13.135-13.515-.285-24.841-9.137-28.744-21.32 1.904.285 3.807.477 5.806.477 2.76 0 5.521-.381 8.09-1.047C16.656 84.613 6.091 72.24 6.091 57.297v-.38a30.962 30.962 0 0013.896 3.902c-8.28-5.52-13.705-14.943-13.705-25.603 0-5.71 1.522-10.945 4.188-15.514 15.133 18.655 37.881 30.837 63.388 32.17-.476-2.285-.761-4.664-.761-7.043 0-16.942 13.706-30.743 30.742-30.743 8.852 0 16.847 3.712 22.463 9.708a60.515 60.515 0 0019.511-7.424c-2.284 7.139-7.138 13.135-13.515 16.942 6.186-.666 12.183-2.38 17.703-4.759-4.188 6.092-9.424 11.517-15.42 15.895z"/>
    </symbol>
    <symbol id="contact" viewBox="0 0 50 50">
      <title>Kontakt</title>
      <path
        fill="currentColor"
        d="M47.636 2.355L37.793.08a3.06 3.06 0 00-3.496 1.768l-4.541 10.595a3.062 3.062 0 00.869 3.564l5.264 4.307A34.173 34.173 0 0120.303 35.9l-4.307-5.264a3.062 3.062 0 00-3.564-.869L1.846 34.308a3.048 3.048 0 00-1.768 3.486l2.266 9.833A3.051 3.051 0 005.322 50c24.629 0 44.677-19.94 44.677-44.677a3.032 3.032 0 00-2.363-2.968zM5.381 46.875l-2.246-9.726 10.488-4.492 5.811 7.109C29.551 35.02 35.03 29.522 39.756 19.444l-7.109-5.811 4.492-10.488 9.726 2.246c-.02 22.901-18.584 41.455-41.484 41.484z"/>
    </symbol>
    <symbol id="search" viewBox="0 0 231.7 230.5">
      <title>Suche</title>
      <ellipse fill="#3E3A45" cx="115.8" cy="115.3" rx="115.5" ry="115"/>
      <ellipse fill="#3E3A45" cx="115.8" cy="115.3" rx="115.5" ry="115"/>
      <circle fill="#FFFFFF" cx="115.8" cy="115.3" r="103.4"/>
      <path fill="#3E3A45" d="M103,57.6c-24.7,0-44.8,20.1-44.8,44.8s20.1,44.8,44.8,44.8c9.5,0,18.3-3,25.6-8l0,0l33.2,33.2
      	c0.6,0.6,1.6,0.6,2.2,0l9-9c0.6-0.6,0.6-1.6,0-2.2L139.8,128c5.1-7.3,8-16.1,8-25.6C147.8,77.7,127.7,57.6,103,57.6z M103,136.7
      	c-18.9,0-34.3-15.3-34.3-34.3S84.1,68.2,103,68.2s34.3,15.3,34.3,34.3S121.9,136.7,103,136.7z"/>
</symbol>

    <symbol id="circle" viewBox="0 0 40 40">
      <title>Circle</title>
      <path fill="currentColor"
        d="M20 0C8.975 0 0 8.976 0 20c0 11.033 8.975 20 20 20 11.033 0 20-8.967 20-20C40 8.976 31.032 0 20 0zm0 38.848C9.611 38.848 1.161 30.389 1.161 20S9.611 1.162 20 1.162s18.848 8.451 18.848 18.839S30.389 38.848 20 38.848z"/><path fill="currentColor" d="M22.348 14.747l5.367 4.676H9.851v1.153h17.864l-5.367 4.678.757.873L30.148 20l-7.043-6.126z"/>
    </symbol>
    <symbol id="triangle" viewBox="0 0 30 15">
      <title>Triangle</title>
      <path fill="currentColor" d="M28.284 14.143H0L14.142 0z"/>
    </symbol>
    <symbol id="arrow-checkbox" viewBox="0 0 15 7.5">
      <title>Arrow-Checkbox</title>
      <path fill='none' stroke='currentColor' stroke-width='3' d='M1.73 12.91l6.37 6.37L22.79 4.59'/>
    </symbol>
    <symbol id="arrow" viewBox="0 0 15 7.5">
      <title>Arrow</title>
      <path fill="currentColor" d="M7.5 7.5L15 0H0z"/>
    </symbol>
    <symbol id="arrow-totop"  viewBox="0 0 235 235">
      <ellipse fill="currentfill" cx="117.5" cy="117.5" rx="112.5" ry="112.5"/>
      <path  fill="currentColor" d="M117.7,102.8l-45.2,45.5c-3.4,3.4-8.8,3.4-12.2,0s-3.4-8.9,0-12.3l50.9-51.2c1.8-1.8,4.2-2.6,6.5-2.5
      	c2.4-0.1,4.7,0.7,6.5,2.5l50.9,51.2c3.4,3.4,3.4,8.9,0,12.3c-3.4,3.4-8.8,3.4-12.2,0L117.7,102.8z"/>
    </symbol>
    <symbol id="down-arrow" viewBox="115.5 115.5 75 75">
      <title>down-arrow</title>
      <polygon  points="124.25,129.875 153,158.625 181.75,129.875 190.5,138.625 153,176.125 115.5,138.625 		"/>

    </symbol>
    <symbol id="arrow-down" viewBox="0 0 77.992 75.25">
      <title>arrow-down</title>
      <circle fill="#FFF" stroke="currentColor" stroke-miterlimit="10" cx="37.625" cy="37.625" r="36.5"/><path fill="none" stroke="currentColor" stroke-width="2" stroke-miterlimit="10" d="M23.938 30.136l15.031 15.032 15.086-15.086"/>
    </symbol>
    <symbol id="pfeil-runter" viewBox="0 0 256 256">
      <title>pfeil-runter</title>
      <path d="M225.813 48.907L128 146.72 30.187 48.907 0 79.093l128 128 128-128z"/>
    </symbol>
    <symbol id="vcard" viewBox="0 0 200 125">
      <title>Vcard</title>
      <path
        fill="currentColor"
        d="M711.268 250.448c0-14.699-11.403-26.632-25.449-26.632H329.545c-14.045 0-25.448 11.933-25.448 26.632v213.06c0 14.699 11.403 26.633 25.448 26.633h356.274c14.046 0 25.449-11.934 25.449-26.633v-213.06z"
        stroke="#000"
        stroke-width="8.72"
        transform="matrix(.4691 0 0 .44823 -138.15 -97.508)"/><ellipse cx="568.502" cy="643.79" rx="35.211" ry="33.291" transform="matrix(.44944 0 0 .4749 -197.374 -262.276)"/><path
        d="M168.918 84.095a3.533 3.533 0 00-3.532-3.531h-54.57a3.533 3.533 0 00-3.532 3.531 3.534 3.534 0 003.532 3.532h54.57a3.534 3.534 0 003.532-3.532zM168.918 62.797a3.533 3.533 0 00-3.532-3.532h-54.57a3.533 3.533 0 00-3.532 3.532 3.534 3.534 0 003.532 3.532h54.57a3.534 3.534 0 003.532-3.532zM168.918 40.646a3.533 3.533 0 00-3.532-3.531h-54.57a3.533 3.533 0 00-3.532 3.531 3.534 3.534 0 003.532 3.532h54.57a3.534 3.534 0 003.532-3.532zM60.01 64.736c6.573.332 22.658 2.843 26.618 19.224v12.338H29.635V83.955C33.727 67.022 50.767 64.905 56.88 64.7l3.132.037z"/>
    </symbol>
    <symbol id="pdf" viewBox="0 0 384 512">
      <title>PDF</title>
      <path
        fill="currentColor"
        d="M369.9 97.9L286 14C277 5 264.8-.1 252.1-.1H48C21.5 0 0 21.5 0 48v416c0 26.5 21.5 48 48 48h288c26.5 0 48-21.5 48-48V131.9c0-12.7-5.1-25-14.1-34zm-22.6 22.7c2.1 2.1 3.5 4.6 4.2 7.4H256V32.5c2.8.7 5.3 2.1 7.4 4.2l83.9 83.9zM336 480H48c-8.8 0-16-7.2-16-16V48c0-8.8 7.2-16 16-16h176v104c0 13.3 10.7 24 24 24h104v304c0 8.8-7.2 16-16 16zm-22-171.2c-13.5-13.3-55-9.2-73.7-6.7-21.2-12.8-35.2-30.4-45.1-56.6 4.3-18 12-47.2 6.4-64.9-4.4-28.1-39.7-24.7-44.6-6.8-5 18.3-.3 44.4 8.4 77.8-11.9 28.4-29.7 66.9-42.1 88.6-20.8 10.7-54.1 29.3-58.8 52.4-3.5 16.8 22.9 39.4 53.1 6.4 9.1-9.9 19.3-24.8 31.3-45.5 26.7-8.8 56.1-19.8 82-24 21.9 12 47.6 19.9 64.6 19.9 27.7.1 28.9-30.2 18.5-40.6zm-229.2 89c5.9-15.9 28.6-34.4 35.5-40.8-22.1 35.3-35.5 41.5-35.5 40.8zM180 175.5c8.7 0 7.8 37.5 2.1 47.6-5.2-16.3-5-47.6-2.1-47.6zm-28.4 159.3c11.3-19.8 21-43.2 28.8-63.7 9.7 17.7 22.1 31.7 35.1 41.5-24.3 4.7-45.4 15.1-63.9 22.2zm153.4-5.9s-5.8 7-43.5-9.1c41-3 47.7 6.4 43.5 9.1z"/>
    </symbol>
    <symbol id="video" viewBox="0 0 384 512">
      <title>Video</title>
      <path
        fill="currentColor"
        d="M224 281c0-14-11-25-25-25H89c-14 0-25 11-25 25v110c0 14 11 25 25 25h110c14 0 25-11 25-25v-10l28 28a24 24 0 0017 7h27c13 0 24-11 24-24V280c0-13-11-24-24-24h-27a24 24 0 00-17 7l-28 28v-10zm-32 103H96v-96h96v96zm80-96h16v96h-16l-48-41v-14l48-41zm98-190l-84-84a48 48 0 00-34-14H48C21 0 0 21 0 48v416c0 27 21 48 48 48h288c27 0 48-21 48-48V132a48 48 0 00-14-34zM256 32a16 16 0 017 5l84 84a16 16 0 015 7h-96V32zm96 432c0 9-7 16-16 16H48c-9 0-16-7-16-16V48c0-9 7-16 16-16h176v104c0 13 11 24 24 24h104v304z"/>
    </symbol>
    <symbol id="word" viewBox="0 0 384 512">
      <title>Word</title>
      <path
        fill="currentColor"
        d="M370 98l-84-84c-9-9-21-14-34-14H48C22 0 0 22 0 48v416c0 27 22 48 48 48h288c27 0 48-21 48-48V132c0-13-5-25-14-34zm-23 23c2 2 4 4 4 7h-95V33c3 0 5 2 7 4l84 84zm-11 359H48c-9 0-16-7-16-16V48c0-9 7-16 16-16h176v104c0 13 11 24 24 24h104v304c0 9-7 16-16 16zm-54-246c-6 32-32 139-33 150-6-29-1 1-42-151-1-5-6-9-11-9h-7c-5 0-10 4-11 9-39 142-38 141-40 155-4-24 2-3-34-155-2-5-6-9-12-9h-7c-8 0-14 7-12 15l42 168c2 5 7 9 12 9h17c5 0 10-4 12-9 34-128 33-123 36-143l37 143c1 5 6 9 12 9h14c5 0 13-4 15-9l43-168c1-8-4-15-12-15h-7c-6 0-10 4-12 10z"/>
    </symbol>
    <symbol id="powerpoint" viewBox="0 0 384 512">
      <title>Powerpoint</title>
      <path
        fill="currentColor"
        d="M370 98l-84-84c-9-9-21-14-34-14H48C22 0 0 22 0 48v416c0 27 22 48 48 48h288c27 0 48-21 48-48V132c0-13-5-25-14-34zm-23 23c2 2 4 4 4 7h-95V33c3 0 5 2 7 4l84 84zm-11 359H48c-9 0-16-7-16-16V48c0-9 7-16 16-16h176v104c0 13 11 24 24 24h104v304c0 9-7 16-16 16zM204 208h-64c-7 0-12 5-12 12v184c0 7 5 12 12 12h8c7 0 12-5 12-12v-60h44c39 0 68-28 68-69 0-39-24-67-68-67zm26 98c-7 7-17 11-31 11h-39v-84h40c13 0 23 4 30 11 16 15 15 47 0 62z"/>
    </symbol>
    <symbol id="image" viewBox="0 0 384 512">
      <title>Image</title>
      <path
        fill="currentColor"
        d="M159 336l-39-39c-5-5-13-5-17 0l-39 39-1 112h256V304l-55-55c-5-5-13-5-17 0l-88 87zm96-51l32 32v99H95v-67l16-16 48 48 96-96zm-128-29a64 64 0 100-128 64 64 0 000 128zm0-96c18 0 32 14 32 32s-14 32-32 32-32-14-32-32 14-32 32-32zm243-62l-84-84c-9-9-21-14-34-14H48C22 0 0 22 0 48v416c0 27 22 48 48 48h288c27 0 48-21 48-48V132c0-13-5-25-14-34zM256 33c3 0 5 2 7 4l84 84c2 2 4 4 4 7h-95V33zm96 431c0 9-7 16-16 16H48c-9 0-16-7-16-16V48c0-9 7-16 16-16h176v104c0 13 11 24 24 24h104v304z"/>
    </symbol>
    <symbol id="excel" viewBox="0 0 384 512">
      <title>Excel</title>
      <path
        fill="currentColor"
        d="M370 98l-84-84c-9-9-21-14-34-14H48C22 0 0 22 0 48v416c0 27 22 48 48 48h288c27 0 48-21 48-48V132c0-13-5-25-14-34zm-23 23c2 2 4 4 4 7h-95V33c3 0 5 2 7 4l84 84zm-11 359H48c-9 0-16-7-16-16V48c0-9 7-16 16-16h176v104c0 13 11 24 24 24h104v304c0 9-7 16-16 16zM212 308l50-82c5-8-1-18-10-18h-4c-4 0-8 2-10 6-31 48-37 53-46 74-17-32-8-16-46-74-2-4-6-6-10-6h-4c-9 0-15 10-10 18l51 82-59 90c-5 8 1 18 10 18h4c4 0 7-2 10-5 37-58 45-63 54-83 32 57 44 67 54 83 3 3 6 5 10 5h4c10 0 15-10 10-18l-58-90z"/>
    </symbol>
    <symbol id="archive" viewBox="0 0 384 512">
      <title>Archive</title>
      <path
        fill="currentColor"
        d="M370 98l-84-84a48 48 0 00-34-14H48C21 0 0 21 0 48v416c0 27 21 48 48 48h288c27 0 48-21 48-48V132a48 48 0 00-14-34zM256 32a16 16 0 017 5l84 84a16 16 0 015 7h-96V32zm96 432c0 9-7 16-16 16H48c-9 0-16-7-16-16V48c0-9 7-16 16-16h80v32h32V32h64v104c0 13 11 24 24 24h104v304zM192 96h-32V64h32v32zm-32 0v32h-32V96h32zm0 64v32h-32v-32h32zm32 0h-32v-32h32v32zm-10 96h-22v-32h-32v32l-19 97a52 52 0 10102 0l-17-87a12 12 0 00-12-10zm-22 134c-18 0-32-12-32-27s14-27 32-27 33 12 33 27-15 27-33 27zm32-166h-32v-32h32v32z"/>
    </symbol>
    <symbol  id="leben" viewBox="0 0 51 51">
  	<title>Leben mit Duchenne</title>
      <path fill="currentColor" d="M50.1,11.7c-0.8-3.1-2.7-5.9-5.2-7.8c-2-1.6-4.5-2.6-7.1-2.6c-2.3-0.1-4.6,0.6-6.7,1.5c-2,0.8-3.8,2-5.6,3.1
  			c-1.3-0.8-2.4-1.8-3.7-2.6c-2-1.2-4.1-2.1-6.4-2.4c-2.8-0.4-5.5,0.3-7.9,1.7c-2,1.2-3.8,2.8-5,4.8c-3.3,5.7-2,12.7,1.1,18.1
  			c0.1,0.2,0.6,0.3,0.8,0.1c2.7-3.4,5.5-6.8,8.2-10.1c0.4-0.4,1-0.3,1.3,0.2c0.4,0.7,0.8,1.5,1.2,2.3c0.8,1.5,1.6,3,2.4,4.5
  			c0.2,0.3,0.8,0.3,0.9-0.1c0.4-2.9,0.9-5.8,1.3-8.7c0.2-1.4,0.4-2.7,0.6-4.1c0.1-0.7,1.2-0.6,1.5-0.1c0.1,0.2,0.1,0.5,0.1,0.7
  			c0.1,0.4,0.1,0.8,0.2,1.2c0.1,0.7,0.2,1.4,0.3,2.1c0.2,1.5,0.4,3,0.6,4.5c0.4,2.9,0.8,5.8,1.3,8.7c0.1,0.5,0.8,0.5,0.9,0
  			c0.2-1.1,0.4-2.1,0.6-3.2c0.1-0.5,0.1-1.1,0.3-1.5c0.2-0.5,1-0.4,1.5-0.4c2.4,0,4.8,0,7.1,0c4.8,0,9.5,0,14.3,0
  			c0.2,0,0.4-0.1,0.5-0.4C50.5,18.1,50.9,14.8,50.1,11.7z M48.6,20.5c-5,0-9.9,0-14.9,0c-1.3,0-2.5,0-3.8,0c-1.1,0-2.4-0.2-3.5,0.1
  			c-1,0.2-1.3,1.1-1.4,1.9c-0.1,0.3-0.1,0.6-0.2,1c-0.3-2.3-0.7-4.7-1-7c-0.2-1.7-0.5-3.3-0.7-5c-0.2-1.1,0-2.5-1.1-3.2
  			c-0.6-0.4-1.6-0.3-2.2,0.2c-0.3,0.3-0.5,0.7-0.5,1.1c-0.1,0.9-0.3,1.7-0.4,2.6c-0.4,2.8-0.9,5.6-1.3,8.5c-0.8-1.5-1.6-3-2.4-4.5
  			c-0.4-0.7-0.7-1.5-1.5-1.8c-0.6-0.2-1.2-0.1-1.7,0.3c0,0-0.1,0.1-0.1,0.1c0,0,0,0-0.1,0c0,0,0,0,0,0c-2.6,3.2-5.2,6.4-7.8,9.6
  			C1.5,19.5,0.4,13.7,2.8,8.6C5,4,10.4,1,15.4,1.8c2.2,0.3,4.2,1.3,6.1,2.4C22.8,5,24,6,25.3,6.8c0.1,0.1,0.3,0.1,0.5,0
  			c3.4-2.1,7-4.4,11.1-4.6c6-0.4,11.2,4.6,12.4,10.3C49.9,15.1,49.5,17.9,48.6,20.5z"/>
  		<path fill="currentColor" d="M47.7,23.1c-6.6,0-13.3,0-19.9,0c0,0,0,0-0.1,0c-0.2,0-0.4,0.1-0.4,0.3c-0.5,2.7-1,5.5-1.4,8.2
  			c-0.1,0.6-0.2,1.3-0.3,1.9c-0.1,0.3-0.1,0.6-0.2,0.9c0,0.2,0,0.6-0.2,0.8c-0.4,0.5-1.3,0.4-1.5-0.3c-0.3-1.3-0.4-2.7-0.6-4
  			c-0.2-1.4-0.4-2.8-0.6-4.2c-0.4-2.7-0.8-5.5-1.2-8.2c-0.1-0.5-0.9-0.5-0.9,0c-0.3,1.8-0.5,3.6-0.8,5.3c-0.1,0.9-0.3,1.7-0.4,2.6
  			c-0.1,0.5-0.6,0.7-1.1,0.5c-0.6-0.1-0.8-1.1-1.1-1.6c-0.4-0.8-0.9-1.7-1.3-2.5c-0.8-1.6-1.7-3.2-2.5-4.8c-0.1-0.3-0.6-0.3-0.8-0.1
  			C10,21,7.5,24.1,5,27.2c-0.1,0.2-0.2,0.4-0.1,0.6c2.6,3.7,5.9,7,8.9,10.4c3.6,4,7.2,7.9,10.7,12c0.2,0.2,0.5,0.2,0.7,0
  			c3.8-4.6,7.9-9,12-13.3c1.9-2.1,3.9-4.1,5.8-6.2c1.9-2.1,3.7-4.3,5-6.9C48.3,23.5,48.1,23.1,47.7,23.1z M42.3,30.1
  			c-1.9,2.1-3.9,4.1-5.8,6.2c-3.9,4.2-7.8,8.4-11.5,12.8c-3.3-3.9-6.7-7.6-10.1-11.4c-1.5-1.6-3-3.3-4.5-5c-1.5-1.7-3-3.4-4.3-5.2
  			c2.3-2.8,4.5-5.6,6.8-8.4c0.9,1.7,1.8,3.3,2.7,5c0.5,1,1,1.9,1.5,2.9c0.3,0.5,0.8,0.8,1.4,0.8c0.5,0,1-0.1,1.4-0.4
  			c0.6-0.5,0.6-1.5,0.7-2.2c0.2-1.1,0.3-2.3,0.5-3.4c0.3,2.1,0.6,4.2,0.9,6.3c0.2,1.6,0.4,3.1,0.7,4.7c0.1,0.8,0.2,1.6,0.3,2.4
  			c0.1,0.4,0.3,0.7,0.6,0.9c0.6,0.5,1.5,0.4,2.1,0.1c0.3-0.2,0.5-0.5,0.7-0.9c0.2-0.7,0.3-1.5,0.4-2.2c0.5-3,1-6,1.6-9
  			c6.2,0,12.4,0,18.6,0C45.6,26.2,44,28.2,42.3,30.1z"/>
        </symbol>
      <symbol  id="aktuelles" viewBox="0 0 51 51">
    		<title>Aktuelles</title>
        <path fill="currentColor" d="M40,12.7c0.1,0.2,0.4,0.3,0.6,0.3c0.1,0,0.3,0,0.4-0.1l4-2.4c0.3-0.2,0.5-0.7,0.2-1c-0.2-0.3-0.7-0.5-1-0.2l-4,2.4
      		C39.9,11.9,39.8,12.4,40,12.7z"/>
      	<path fill="currentColor" d="M49.8,17.6L44,17c-0.4,0-0.8,0.3-0.8,0.7c0,0.4,0.3,0.8,0.7,0.8l5.8,0.6c0,0,0,0,0.1,0c0.4,0,0.7-0.3,0.7-0.7
      		C50.5,18,50.2,17.6,49.8,17.6z"/>
      	<path fill="currentColor" d="M37,7.6c0.1,0,0.2,0.1,0.3,0.1c0.3,0,0.6-0.2,0.7-0.5l2.1-5.5c0.1-0.4,0-0.8-0.4-0.9s-0.8,0-0.9,0.4l-2.1,5.5
      		C36.5,7.1,36.6,7.5,37,7.6z"/>
      	<path fill="currentColor" d="M31.8,3.6c-0.5-0.8-1.5-1-2.3-0.6l-0.9,0.5c-0.4,0.2-0.7,0.6-0.8,1.1c-0.1,0.4,0,0.9,0.2,1.3l0.5,0.8L17.1,21l-2.4,1.5
      		c-0.3,0.2-0.5,0.7-0.2,1c0.1,0.2,0.4,0.3,0.6,0.3c0.1,0,0.3,0,0.4-0.1l1.9-1.2l3.7,6c-0.5,0-1.1,0.1-1.6,0.3c0,0,0,0,0,0
      		c-0.1,0-0.1,0.1-0.2,0.1l-2.2,1.4c-0.2,0.1-0.5,0.3-0.7,0.5c-0.2,0.2-0.5,0.5-0.6,0.8l-0.5,0.8l-0.4,0.6c0,0,0,0,0,0c0,0,0,0,0,0
      		c0,0-0.1,0-0.1,0c0,0,0,0,0,0c0,0-0.1,0-0.1-0.1c0,0,0,0,0,0c0,0-0.1,0-0.1-0.1c0,0,0,0,0,0c0,0-0.1-0.1-0.1-0.1c0,0,0,0,0,0
      		c0,0,0-0.1-0.1-0.1l-3.2-5.1C11,27.4,11,27.1,11,26.8c0.1-0.3,0.2-0.5,0.5-0.7l0.9-0.6c0.3-0.2,0.5-0.7,0.2-1
      		c-0.2-0.3-0.7-0.5-1-0.2l-0.9,0.6c-0.6,0.4-1,0.9-1.1,1.6c-0.1,0.4-0.1,0.9,0,1.3l-0.7,0.4C8,28.7,7.7,30,8.3,30.9l1.8,2.9
      		c0.3,0.5,0.7,0.8,1.2,0.9c0.2,0,0.3,0.1,0.5,0.1c0.4,0,0.7-0.1,1.1-0.3l0.7-0.4c0.1,0.1,0.3,0.2,0.5,0.3l-2,3.1l-0.5,0.3
      		c-0.1-0.1-0.2-0.1-0.3-0.1c-0.2,0-0.5,0.1-0.6,0.2l-1.3,1.1c-0.3-0.2-0.7-0.2-1,0c0,0,0,0,0,0l-7.1,5.6c-0.4,0.3-0.7,0.8-0.7,1.4
      		v2.3c0,0.9,0.8,1.7,1.7,1.7h11.6c0.5,0,1-0.2,1.3-0.6l1-1.2c0.2-0.2,0.2-0.4,0.2-0.7l1.3-1.1c0.1-0.1,0.2-0.2,0.3-0.4l3,0.6
      		c0,0,0.1,0,0.1,0c0.1,0,0.2,0,0.3,0c0.7,0,1.4-0.1,2.2-0.5l3-1.8c0.1,0,0.1,0,0.2,0c0.4,0,0.9-0.1,1.2-0.4l2.4-1.5
      		c1.1-0.7,1.5-2.2,0.8-3.3c-0.2-0.4-0.6-0.7-1-0.9c0.4-0.7,0.4-1.6-0.1-2.4c-0.3-0.5-0.9-0.9-1.5-1.1c0.1-0.6,0-1.2-0.3-1.8
      		c-0.3-0.5-0.8-0.9-1.4-1.1c0.2-0.6,0.1-1.3-0.3-1.9c-0.1-0.2-0.2-0.3-0.3-0.4l14.5-3.2l0.5,0.8c0.3,0.5,0.9,0.8,1.4,0.8
      		c0.3,0,0.6-0.1,0.9-0.3l0.9-0.5c0.4-0.2,0.7-0.6,0.8-1.1c0.1-0.4,0-0.9-0.2-1.3L31.8,3.6z M12.1,33.2c-0.1,0.1-0.3,0.1-0.4,0.1
      		c-0.1,0-0.3-0.1-0.3-0.2l-1.8-2.9c-0.2-0.3-0.1-0.6,0.2-0.7l0.6-0.4l2.4,3.8L12.1,33.2z M14,48.4c0,0.1-0.1,0.1-0.2,0.1H2.2
      		c-0.1,0-0.3-0.1-0.3-0.3v-2.3c0-0.1,0-0.2,0.1-0.2l6.7-5.3l6,7L14,48.4z M15.5,46.2L10.3,40l0.8-0.7l5.2,6.2L15.5,46.2z M22.7,44.8
      		c-0.4,0.3-0.9,0.3-1.6,0.3l-3.8-0.8c-0.1,0-0.2,0-0.3,0l-4.6-5.5l0.4-0.3c0,0,0,0,0,0c0,0,0,0,0,0c0,0,0,0,0,0c0,0,0,0,0,0
      		c0,0,0,0,0,0c0,0,0,0,0,0c0,0,0,0,0-0.1c0,0,0,0,0,0l0,0c0,0,0,0,0,0l3.9-5.8c0,0,0,0,0,0c0.2-0.3,0.5-0.6,0.8-0.8l2.2-1.4
      		c0,0,0.1,0,0.1-0.1c0,0,0,0,0.1,0c0,0,0,0,0.1,0c0,0,0.1,0,0.1,0c0,0,0,0,0,0c0,0,0.1,0,0.1,0h0c0.1,0,0.2,0,0.4,0c0,0,0,0,0,0
      		c0,0,0.1,0,0.1,0c0,0,0,0,0,0c0,0,0.1,0,0.1,0c0,0,0,0,0.1,0c0,0,0.1,0,0.1,0c0,0,0,0,0.1,0c0,0,0,0,0.1,0c0,0,0,0,0.1,0
      		c0,0,0,0,0.1,0c0,0,0,0,0,0c0,0,0,0,0.1,0c0,0,0,0,0,0c0,0,0,0,0.1,0c0,0,0,0,0,0c0,0,0,0,0.1,0.1c0.1,0.1,0.2,0.2,0.3,0.3l0.1,0.1
      		l0.8,1.3l1,1.6l0.2,0.4c0,0,0,0.1,0.1,0.1c0,0.1,0.1,0.3,0,0.4c0,0.2-0.2,0.4-0.3,0.5l-0.4,0.3l0,0c0,0-0.1,0-0.1,0c0,0,0,0,0,0
      		c0,0-0.1,0-0.1,0c0,0,0,0,0,0c0,0-0.1,0-0.1,0c0,0,0,0,0,0c0,0-0.1,0-0.1,0c0,0,0,0,0,0c0,0-0.1,0-0.1,0c0,0,0,0,0,0
      		c0,0-0.1,0-0.1,0c0,0,0,0,0,0c-0.1,0-0.1-0.1-0.2-0.1c0,0,0,0,0,0c0,0-0.1,0-0.1-0.1c0,0,0,0,0,0c0,0,0-0.1-0.1-0.1L21.7,34
      		c-0.3-0.4-0.7-0.8-1.2-0.9c-0.5-0.1-1.1,0-1.5,0.3c-0.2,0.1-0.3,0.3-0.3,0.5c0,0.1,0,0.1,0,0.2c0,0,0,0.1,0,0.1c0,0,0,0,0,0
      		c0,0.1,0,0.1,0,0.2c0,0,0,0,0,0c-0.1,0.3-0.2,0.5-0.3,0.8c0,0,0,0,0,0c-0.3,0.4-0.7,0.8-1.2,1.1c-0.3,0.2-0.5,0.7-0.2,1
      		c0.2,0.3,0.7,0.5,1,0.2c0.4-0.2,0.7-0.5,0.9-0.7l3.1,4.8c0.6,0.9,1.5,1.4,2.5,1.4c0.1,0,0.1,0,0.2,0c0,0,0,0.1,0.1,0.1
      		c0.1,0.1,0.2,0.3,0.3,0.4L22.7,44.8z M23.3,39.4C23.3,39.4,23.3,39.4,23.3,39.4c0,0,0,0.1,0,0.1c0,0,0,0,0,0c0,0,0,0.1,0,0.1
      		c0,0,0,0,0,0c0,0,0,0.1,0,0.1c0,0,0,0,0,0c0,0,0,0.1,0.1,0.1c0,0.1,0.1,0.1,0.1,0.2c0,0,0,0,0,0.1c0,0,0.1,0.1,0.1,0.1
      		c0,0,0,0,0.1,0.1c0,0,0,0,0,0c0.1,0.1,0.1,0.1,0.2,0.2c0,0,0,0,0,0c0.1,0.1,0.3,0.2,0.4,0.3c-0.1,0.2-0.2,0.5-0.3,0.8
      		c-0.5,0-0.9-0.3-1.2-0.7l-3.4-5.3c0.2-0.3,0.3-0.7,0.4-1c0.1,0,0.1,0,0.2,0c0.1,0,0.2,0.1,0.3,0.2l0.7,1.2c0,0,0,0,0,0
      		c0,0.1,0.1,0.1,0.1,0.2c0,0,0.1,0.1,0.1,0.1c0,0,0,0,0,0c0,0,0,0,0,0c0,0.1,0,0.1,0,0.2c0,0,0,0,0,0c0,0.1,0,0.1,0.1,0.2
      		c0,0,0,0,0,0c0,0.1,0,0.1,0.1,0.1c0,0,0,0,0,0c0,0.1,0.1,0.1,0.1,0.2c0.3,0.5,0.9,0.9,1.5,1.1C23.1,38.5,23.2,39,23.3,39.4z
      		 M23.8,30.7l0.2-0.2c0.2-0.1,0.5-0.2,0.7-0.1c0.2,0.1,0.5,0.2,0.6,0.4c0.3,0.4,0.1,1-0.3,1.3l-0.2,0.1l-0.7-1.2L23.8,30.7z
      		 M29.3,39.5c0.2,0.1,0.4,0.2,0.6,0.4c0.3,0.4,0.1,1-0.3,1.3l-2.4,1.5c-0.2,0.1-0.4,0.2-0.6,0.1c0,0,0,0,0,0c0,0,0,0,0,0
      		c-0.2-0.1-0.4-0.2-0.6-0.4c-0.1-0.1-0.1-0.2-0.1-0.3c0,0,0,0,0,0c-0.1-0.3,0-0.6,0.2-0.8c0,0,0,0,0,0c0,0,0,0,0,0s0,0,0,0
      		c0,0,0,0,0,0c0,0,0,0,0.1,0c0,0,0,0,0,0l0.5-0.3c0.1,0,0.2-0.1,0.2-0.1l1.9-1.1C28.9,39.5,29.1,39.4,29.3,39.5z M27.6,36.3
      		c0.2-0.1,0.4-0.1,0.6-0.1c0.2,0.1,0.5,0.2,0.6,0.4c0.3,0.4,0.1,1-0.3,1.3L28,38.2c-0.1,0-0.2,0.1-0.3,0.1L26,39.5
      		c-0.3,0.1-0.7,0.1-1-0.2c0,0,0,0,0,0c0,0,0,0-0.1-0.1c0,0,0,0,0,0c0,0,0,0,0,0c0,0,0,0-0.1-0.1c0,0,0-0.1,0-0.1c0,0,0,0,0,0
      		c0,0,0,0,0-0.1c0,0,0,0,0,0c0,0,0,0,0-0.1c0,0,0,0,0,0c0,0,0,0,0-0.1c0,0,0,0,0,0c0,0,0,0,0-0.1c0,0,0,0,0,0c0,0,0,0,0-0.1
      		c0,0,0,0,0,0c0,0,0,0,0-0.1c0,0,0,0,0,0c0,0,0,0,0-0.1c0-0.2,0.1-0.4,0.3-0.5c0,0,0,0,0,0c0,0,0,0,0,0c0,0,0,0,0.1,0l2.4-1.5
      		C27.5,36.3,27.5,36.3,27.6,36.3z M26.4,33.4c0.2,0.1,0.5,0.2,0.6,0.4c0.3,0.4,0.1,1-0.2,1.2c0,0,0,0-0.1,0l-1.8,1.1c0,0,0,0,0,0
      		c0,0,0.1-0.1,0.1-0.1c0,0,0,0,0.1-0.1c0,0,0.1-0.1,0.1-0.1c0,0,0,0,0.1-0.1c0,0,0.1-0.1,0.1-0.1c0,0,0,0,0.1-0.1c0,0,0-0.1,0.1-0.1
      		c0,0,0,0,0-0.1c0,0,0-0.1,0.1-0.1c0,0,0,0,0-0.1c0,0,0-0.1,0.1-0.1c0,0,0,0,0-0.1c0-0.1,0-0.1,0.1-0.2c0-0.1,0-0.1,0-0.2
      		c0,0,0,0,0-0.1c0,0,0-0.1,0-0.1c0,0,0,0,0-0.1c0,0,0-0.1,0-0.1c0,0,0,0,0-0.1c0,0,0-0.1,0-0.1c0,0,0,0,0-0.1c0,0,0-0.1,0-0.1
      		c0,0,0,0,0-0.1c0-0.1,0-0.1-0.1-0.2c0,0,0,0,0,0c0,0,0-0.1-0.1-0.1l0.2-0.1C25.9,33.3,26.2,33.3,26.4,33.4z M43.9,26
      		c0,0,0,0.1-0.1,0.1l-0.9,0.5c-0.1,0.1-0.3,0-0.3-0.1l-9.2-15c-0.2-0.3-0.7-0.5-1-0.2c-0.3,0.2-0.5,0.7-0.2,1L40,25.2l-17,3.7
      		l-4.5-7.3L29.4,8.1l0.9,1.4c0.2,0.3,0.7,0.5,1,0.2c0.3-0.2,0.5-0.7,0.2-1l-2.2-3.6c0-0.1,0-0.1,0-0.2c0,0,0-0.1,0.1-0.1l0.9-0.5
      		c0.1-0.1,0.3,0,0.3,0.1l13.2,21.4C43.9,25.9,43.9,25.9,43.9,26z"/>
    	</symbol>
      <symbol  id="reisen" viewBox="0 0 51 51">
    		<title>Reisen</title>
        <path fill="currentColor"  d="M9.7,47.2c0.3,0,0.5-0.1,0.6-0.3c0.4-0.4,8.5-10.7,8.5-15.5c0-5.1-4.1-9.2-9.2-9.2s-9.2,4.1-9.2,9.2
        	c0,4.8,8.2,15.1,8.5,15.5C9.2,47.1,9.4,47.2,9.7,47.2z M9.7,23.8c4.1,0,7.5,3.4,7.5,7.5c0,3.2-4.9,10.3-7.5,13.6
        	c-2.6-3.3-7.5-10.4-7.5-13.6C2.2,27.2,5.5,23.8,9.7,23.8z"/>
        <path fill="currentColor"  d="M13,30.5c0-1.8-1.5-3.3-3.3-3.3s-3.3,1.5-3.3,3.3s1.5,3.3,3.3,3.3S13,32.3,13,30.5z M8,30.5c0-0.9,0.7-1.7,1.7-1.7
        	s1.7,0.7,1.7,1.7s-0.7,1.7-1.7,1.7S8,31.4,8,30.5z"/>
        <path fill="currentColor"  d="M43.8,18c0.2,0,0.5-0.1,0.6-0.3c0.6-0.7,6-7.1,6-10.5c0-3.7-3-6.7-6.7-6.7c-3.7,0-6.7,3-6.7,6.7c0,3.4,5.4,9.8,6,10.5
        	C43.4,17.9,43.6,18,43.8,18z M43.8,2.2c2.8,0,5,2.2,5,5c0,2.1-3.2,6.5-5,8.7c-1.8-2.2-5-6.6-5-8.7C38.8,4.4,41.1,2.2,43.8,2.2z"/>
        <path fill="currentColor"  d="M46.3,6.3c0-1.4-1.1-2.5-2.5-2.5S41.3,5,41.3,6.3s1.1,2.5,2.5,2.5S46.3,7.7,46.3,6.3z M43,6.3c0-0.5,0.4-0.8,0.8-0.8
        	s0.8,0.4,0.8,0.8s-0.4,0.8-0.8,0.8S43,6.8,43,6.3z"/>
        <path fill="currentColor"  d="M43,21.3h0.8c0.5,0,0.8-0.4,0.8-0.8s-0.4-0.8-0.8-0.8H43c-0.5,0-0.8,0.4-0.8,0.8S42.5,21.3,43,21.3z"/>
        <path fill="currentColor"  d="M32.2,26.3h1.7c0.5,0,0.8-0.4,0.8-0.8s-0.4-0.8-0.8-0.8h-1.7c-0.2,0-0.4,0.1-0.6,0.2s-0.2,0.4-0.2,0.6
        	C31.3,26,31.7,26.3,32.2,26.3z"/>
        <path fill="currentColor"  d="M41.5,25.5c0,0.5,0.4,0.8,0.8,0.8H44c0.5,0,0.8-0.4,0.8-0.8s-0.4-0.8-0.8-0.8h-1.7C41.9,24.7,41.5,25,41.5,25.5z"/>
        <path fill="currentColor"  d="M37.9,21.3h1.7c0.5,0,0.8-0.4,0.8-0.8s-0.4-0.8-0.8-0.8h-1.7c-0.5,0-0.8,0.4-0.8,0.8S37.4,21.3,37.9,21.3z"/>
        <path fill="currentColor"  d="M15.7,48.8H14c-0.5,0-0.8,0.4-0.8,0.8s0.4,0.8,0.8,0.8h1.7c0.5,0,0.8-0.4,0.8-0.8S16.1,48.8,15.7,48.8z"/>
        <path fill="currentColor"  d="M29.7,24.4c0.1,0,0.1,0,0.2,0c0.5-0.1,0.7-0.5,0.6-1c0-0.1,0-0.2,0-0.3c0-0.3,0.1-0.5,0.2-0.8c0.2-0.4,0-0.9-0.4-1.1
        	c-0.4-0.2-0.9,0-1.1,0.4c-0.3,0.7-0.4,1.5-0.3,2.2C29,24.1,29.3,24.3,29.7,24.4z"/>
        <path fill="currentColor"  d="M37.3,26.3h1.7c0.5,0,0.8-0.4,0.8-0.8s-0.4-0.8-0.8-0.8h-1.7c-0.5,0-0.8,0.4-0.8,0.8S36.8,26.3,37.3,26.3z"/>
        <path fill="currentColor"  d="M32.8,21.3h1.7c0.5,0,0.8-0.4,0.8-0.8s-0.4-0.8-0.8-0.8h-1.7c-0.5,0-0.8,0.4-0.8,0.8S32.4,21.3,32.8,21.3z"/>
        <path fill="currentColor"  d="M24.6,35.8c0.1,0,0.1,0,0.2,0c0.4,0,0.7-0.3,0.8-0.6c0.1-0.4,0.3-0.8,0.6-1.2c0.2-0.2,0.3-0.5,0.2-0.8
        	c-0.1-0.3-0.3-0.5-0.6-0.5c-0.3-0.1-0.6,0.1-0.8,0.3c-0.4,0.5-0.8,1.2-0.9,1.8c-0.1,0.2,0,0.4,0.1,0.6
        	C24.2,35.6,24.4,35.8,24.6,35.8z"/>
        <path fill="currentColor"  d="M41,48.8c-0.2,0-0.4,0-0.5,0h-1c-0.5,0-0.8,0.4-0.8,0.8s0.4,0.8,0.8,0.8h1c0.3,0,0.5,0,0.7,0c0.5-0.1,0.8-0.5,0.7-0.9
        	C41.9,49.1,41.5,48.7,41,48.8L41,48.8z"/>
        <path fill="currentColor"  d="M42.2,39.1c-0.6-0.2-1.1-0.3-1.7-0.2h-0.2c-0.5,0-0.8,0.4-0.8,0.8s0.4,0.8,0.8,0.8h0.2c0.4,0,0.8,0.1,1.2,0.2
        	c0.1,0,0.2,0,0.2,0c0.4,0,0.8-0.3,0.8-0.7C42.8,39.6,42.6,39.2,42.2,39.1L42.2,39.1z"/>
        <path fill="currentColor"  d="M40.4,33c0.5,0,0.8-0.4,0.8-0.8c0-0.5-0.4-0.8-0.8-0.8h-1.7c-0.5,0-0.8,0.4-0.8,0.8c0,0.5,0.4,0.8,0.8,0.8H40.4z"/>
        <path fill="currentColor"  d="M45.4,46c-0.4-0.2-0.9,0-1.1,0.4c-0.2,0.4-0.5,0.8-0.8,1.2c-0.2,0.2-0.3,0.5-0.2,0.8c0.1,0.3,0.3,0.5,0.6,0.6
        	c0.3,0.1,0.6,0,0.8-0.2c0.5-0.5,0.8-1,1.1-1.6C46,46.6,45.8,46.1,45.4,46z"/>
        <path fill="currentColor"  d="M49.8,29c-0.2-0.1-0.4,0-0.6,0.1c-0.2,0.1-0.3,0.3-0.4,0.5c-0.1,0.4-0.3,0.8-0.7,1.1c-0.3,0.3-0.3,0.9,0,1.2s0.9,0.3,1.2,0
        	c0.5-0.5,0.9-1.1,1.1-1.8c0.1-0.2,0-0.4-0.1-0.6C50.2,29.2,50,29,49.8,29z"/>
        <path fill="currentColor"  d="M48.8,27.4c0.3,0,0.6-0.2,0.8-0.5c0.1-0.3,0.1-0.7-0.1-0.9c-0.5-0.5-1.1-0.9-1.8-1.2c-0.4-0.1-0.9,0.1-1.1,0.5
        	c-0.1,0.4,0.1,0.9,0.5,1.1c0.4,0.1,0.8,0.4,1,0.7C48.4,27.3,48.6,27.4,48.8,27.4z"/>
        <path fill="currentColor"  d="M36.9,38.8h-1.7c-0.5,0-0.8,0.4-0.8,0.8s0.4,0.8,0.8,0.8h1.7c0.5,0,0.8-0.4,0.8-0.8S37.3,38.8,36.9,38.8z"/>
        <path fill="currentColor"  d="M45.5,31.3h-1.7c-0.5,0-0.8,0.4-0.8,0.8c0,0.5,0.4,0.8,0.8,0.8h1.7c0.5,0,0.8-0.4,0.8-0.8C46.4,31.7,46,31.3,45.5,31.3z"/>
        <path fill="currentColor"  d="M20.8,48.8h-1.7c-0.5,0-0.8,0.4-0.8,0.8s0.4,0.8,0.8,0.8h1.7c0.5,0,0.8-0.4,0.8-0.8S21.2,48.8,20.8,48.8z"/>
        <path fill="currentColor"  d="M45.3,41.4c-0.3-0.4-0.8-0.5-1.2-0.2c-0.4,0.3-0.5,0.8-0.2,1.2c0.3,0.4,0.5,0.8,0.6,1.3c0.1,0.3,0.3,0.5,0.6,0.6
        	c0.3,0.1,0.6,0,0.8-0.2c0.2-0.2,0.3-0.5,0.2-0.8C46,42.6,45.7,41.9,45.3,41.4z"/>
        <path fill="currentColor"  d="M27.1,38.5c-0.4-0.2-0.7-0.5-1-0.8c-0.3-0.4-0.8-0.4-1.2-0.1c-0.4,0.3-0.4,0.8-0.1,1.2c0.4,0.5,1,1,1.6,1.3
        	c0.4,0.2,0.9,0,1.1-0.4C27.7,39.2,27.5,38.7,27.1,38.5z"/>
        <path fill="currentColor"  d="M25.9,48.8h-1.7c-0.5,0-0.8,0.4-0.8,0.8s0.4,0.8,0.8,0.8h1.7c0.5,0,0.8-0.4,0.8-0.8S26.3,48.8,25.9,48.8z"/>
        <path fill="currentColor"  d="M36.1,48.8h-1.7c-0.5,0-0.8,0.4-0.8,0.8s0.4,0.8,0.8,0.8h1.7c0.5,0,0.8-0.4,0.8-0.8S36.5,48.8,36.1,48.8z"/>
        <path fill="currentColor"  d="M30.2,33c0.5,0,0.8-0.4,0.8-0.8c0-0.5-0.4-0.8-0.8-0.8h-1.7c-0.5,0-0.8,0.4-0.8,0.8c0,0.5,0.4,0.8,0.8,0.8H30.2z"/>
        <path fill="currentColor"  d="M35.3,33c0.5,0,0.8-0.4,0.8-0.8c0-0.5-0.4-0.8-0.8-0.8h-1.7c-0.5,0-0.8,0.4-0.8,0.8c0,0.5,0.4,0.8,0.8,0.8H35.3z"/>
        <path fill="currentColor"  d="M31.8,38.8h-1.7c-0.5,0-0.8,0.4-0.8,0.8s0.4,0.8,0.8,0.8h1.7c0.5,0,0.8-0.4,0.8-0.8S32.3,38.8,31.8,38.8z"/>
        <path fill="currentColor"  d="M31,48.8h-1.7c-0.5,0-0.8,0.4-0.8,0.8s0.4,0.8,0.8,0.8H31c0.5,0,0.8-0.4,0.8-0.8S31.4,48.8,31,48.8z"/>
        <path fill="currentColor"  d="M10.5,48.8H9.7c-0.5,0-0.8,0.4-0.8,0.8s0.4,0.8,0.8,0.8h0.8c0.5,0,0.8-0.4,0.8-0.8S11,48.8,10.5,48.8z"/>
    	</symbol>


      <symbol  id="games" viewBox="0 0 51 51">
        <title>Gaming mit Duchenne</title>
        <g>
        	<g>
        		<path fill="currentColor"  d="M50.5,31.8c-0.1-2.9-0.6-6-1.4-9c-0.7-2.9-1.7-5.5-2.8-7.6c-4.4-7.7-9.1-6.5-14.8-5c-1.8,0.4-3.7,0.9-5.7,1.1h-0.6
        			c-2-0.2-3.9-0.7-5.7-1.1c-5.7-1.4-10.4-2.7-14.8,5c-1.1,2.1-2.1,4.7-2.8,7.6c-0.7,3-1.2,6.2-1.4,9C0.4,35,0.7,37.3,1.4,39
        			c0.7,1.5,1.7,2.4,3,2.8c1.2,0.3,2.6,0.2,4-0.4c2.4-1,5.2-3.1,8-5.7c1.9-1.9,5.5-2.8,9.2-2.8s7.2,0.9,9.2,2.8
        			c2.7,2.6,5.5,4.7,8,5.7c1.4,0.6,2.8,0.7,4,0.4c1.2-0.4,2.3-1.2,3-2.9C50.3,37.3,50.6,35,50.5,31.8z M47.5,38
        			c-0.4,0.9-0.9,1.4-1.5,1.6c-0.7,0.2-1.6,0.1-2.6-0.3c-2.2-0.9-4.7-2.8-7.2-5.2c-2.4-2.4-6.5-3.5-10.7-3.5s-8.3,1.2-10.8,3.4
        			c-2.6,2.4-5.1,4.4-7.2,5.2c-1,0.4-1.9,0.6-2.6,0.3c-0.6-0.2-1.1-0.7-1.5-1.6c-0.5-1.2-0.7-3.1-0.6-6c0.1-2.7,0.6-5.7,1.3-8.6
        			c0.7-2.7,1.6-5.2,2.6-7c3.4-6.2,7.4-5.2,12.1-3.9c1.9,0.5,3.9,1,6.1,1.2c0.1,0,0.1,0,0.1,0h0.7c0.1,0,0.1,0,0.1,0
        			c2.2-0.2,4.2-0.7,6.2-1.2c4.7-1.2,8.7-2.2,12.1,3.9c1.1,1.9,1.9,4.3,2.6,7c0.7,2.9,1.2,5.9,1.3,8.6C48.3,34.8,48,36.7,47.5,38z"/>
        	</g>
        </g>
        <g>
        	<g>
        		<path fill="currentColor" d="M19.8,19.6c-0.6-0.6-1.4-1-2.2-1.1c-0.1-0.8-0.4-1.6-1-2.2l-0.1-0.1c-0.7-0.7-1.6-1.1-2.6-1.1s-1.9,0.4-2.6,1.1
        			c-0.6,0.6-1,1.4-1.1,2.2c-0.9,0.1-1.6,0.4-2.2,1L8,19.6c-0.7,0.7-1.1,1.6-1.1,2.6c0,1,0.4,1.9,1.1,2.6s1.4,1,2.3,1.1
        			c0.1,0.9,0.4,1.7,1.1,2.2c0.7,0.7,1.6,1.1,2.6,1.1s1.9-0.4,2.6-1.1c0.6-0.6,1-1.4,1.1-2.2c0.9-0.1,1.7-0.4,2.2-1.1
        			c0.7-0.7,1.1-1.6,1.1-2.6C20.8,21.2,20.4,20.3,19.8,19.6z M18.2,23.1c-0.2,0.2-0.6,0.4-0.9,0.4h-0.9c-0.6,0-1.2,0.5-1.2,1.2v0.8
        			c0,0.4-0.1,0.7-0.4,0.9c-0.2,0.2-0.6,0.4-0.9,0.4s-0.7-0.1-0.9-0.4c-0.2-0.2-0.4-0.6-0.4-0.9v-0.9c0-0.6-0.5-1.2-1.2-1.2h-0.9
        			c-0.4,0-0.7-0.1-0.9-0.4c-0.2-0.2-0.4-0.5-0.4-0.9c0-0.4,0.1-0.7,0.4-0.9c0,0,0,0,0.1-0.1c0.2-0.2,0.6-0.3,0.9-0.3h0.9
        			c0.6,0,1.2-0.5,1.2-1.2v-0.9c0-0.4,0.1-0.7,0.4-0.9c0.2-0.2,0.6-0.4,0.9-0.4s0.7,0.1,0.9,0.4c0,0,0,0,0.1,0.1
        			c0.2,0.2,0.3,0.6,0.3,0.9v0.9c0,0.6,0.5,1.2,1.2,1.2h0.9c0.4,0,0.7,0.1,0.9,0.4c0.2,0.2,0.4,0.6,0.4,0.9
        			C18.6,22.6,18.5,22.9,18.2,23.1z"/>
        	</g>
        </g>
        <g>
        	<g>
        		<circle fill="currentColor"  cx="36.3" cy="17.8" r="2.2"/>
        	</g>
        </g>
        <g>
        	<g>
        		<circle fill="currentColor" cx="36.3" cy="26.6" r="2.2"/>
        	</g>
        </g>
        <g>
        	<g>
        		<circle fill="currentColor"  cx="31.9" cy="22.2" r="2.2"/>
        	</g>
        </g>
        <g>
        	<g>
        		<circle fill="currentColor" cx="40.8" cy="22.2" r="2.2"/>
        	</g>
        </g>

      </symbol>  <symbol  id="comment" viewBox="0 0 51 51">
          <title>Kommentar</title>
          <path fill="currentColor" d="M44.6,0.5H6.4c-3.2,0-5.9,2.6-5.9,5.9v25.2c0,3.2,2.6,5.9,5.9,5.9h9.1c0.2,0,0.4,0.2,0.4,0.4v9.9c0,1.5,1.2,2.7,2.7,2.7
          	c0.7,0,1.4-0.3,1.9-0.8l12.1-12.1c0.1-0.1,0.2-0.1,0.3-0.1h11.7c3.2,0,5.9-2.6,5.9-5.9V6.4C50.5,3.1,47.9,0.5,44.6,0.5
          	C44.6,0.5,44.6,0.5,44.6,0.5z M48.2,31.6c0,1.9-1.6,3.5-3.5,3.5H32.9c-0.7,0-1.4,0.3-1.9,0.8L18.9,48c-0.2,0.2-0.4,0.2-0.6,0
          	c-0.1-0.1-0.1-0.2-0.1-0.3v-9.9c0-1.5-1.2-2.7-2.7-2.7l0,0H6.4c-1.9,0-3.5-1.6-3.5-3.5V6.4c0-1.9,1.6-3.5,3.5-3.5h38.3
          	c1.9,0,3.5,1.6,3.5,3.5V31.6z"/>
        </symbol>
        <symbol id="play" viewBox="0 0 32 32">
<path   fill="currentColor" d="M16,0C7.164,0,0,7.164,0,16s7.164,16,16,16s16-7.164,16-16S24.836,0,16,0z M10,24V8l16.008,8L10,24z   "/>  </symbol>
  </defs>
  <g id="circle-right-gray">
    <use class="gray" xlink:href="#arrow-down"/>
  </g>
  <g id="circle-right-white">
    <use class="white" xlink:href="#circle"/>
  </g>
  <g id="arrow-down-menu">
    <use class="white" xlink:href="#arrow"/>
  </g>
  <g id="arrow-downmenu">
    <use class="red" xlink:href="#arrow"/>
  </g>
  <g id="triangle-menu">
    <use class="red" xlink:href="#triangle"/>
  </g>
  <g id="accordion-down">
    <use class="white" xlink:href="#accordion"/>
  </g>
  <g id="vcard-icon">
    <use class="transparent" xlink:href="#vcard"/>
  </g>
</svg>
