<?xml version="1.0" encoding="utf-8"?>
<!-- Generator: Adobe Illustrator 27.5.0, SVG Export Plug-In . SVG Version: 6.00 Build 0)  -->
<svg version="1.1" id="Ebene_3" xmlns="http://www.w3.org/2000/svg" xmlns:xlink="http://www.w3.org/1999/xlink" x="0px" y="0px"
	 viewBox="0 0 480 470" style="enable-background:new 0 0 480 470;" xml:space="preserve">
<style type="text/css">
	.st0{fill:#B20202;}
	.st1{display:none;}
	.st2{display:inline;}
	.st3{display:none;fill:#756E6E;}
	.st4{fill:#756E6E;}
	.st5{fill:#2799D2;}
	.st6{clip-path:url(#SVGID_00000041264807173323391460000015580990562216544403_);}
	.st7{fill:#1F5DA6;}
	.st8{fill:#EEEEEE;}
	.st9{fill:#444444;}
</style>
<rect x="-1.2" y="473.7" class="st0" width="1920" height="60"/>
<g id="Ballbusters" class="st1">
	<g class="st2">
		<rect x="240.2" y="471.7" class="st3" width="181" height="59.4"/>
		<rect x="418.8" y="474.1" class="st4" width="181" height="59.4"/>
		<rect x="600.2" y="472.3" class="st3" width="181" height="59.4"/>
		<rect x="781.8" y="472.1" class="st3" width="181" height="59.4"/>
		<rect x="962.8" y="472.1" class="st3" width="181" height="59.4"/>
		<rect x="1141.8" y="472.1" class="st3" width="181" height="59.4"/>
	</g>
	<g class="st2">
		<text transform="matrix(1.0011 0 0 1 306.4141 508.7452)" style="fill:#FFFFFF; font-family:'Tahoma'; font-size:23.9741px;">Start</text>
		<text transform="matrix(1.0011 0 0 1 478.7734 509.4161)" style="fill:#FFFFFF; font-family:'Tahoma'; font-size:23.9741px;">Team</text>
		<text transform="matrix(1.0011 0 0 1 647.1367 508.6862)" style="fill:#FFFFFF; font-family:'Tahoma'; font-size:23.9741px;">Historie</text>
		<text transform="matrix(1.0011 0 0 1 831.2832 508.6862)" style="fill:#FFFFFF; font-family:'Tahoma'; font-size:23.9741px;">Erfolge</text>
		<text transform="matrix(1.0011 0 0 1 1013.0254 508.6862)" style="fill:#FFFFFF; font-family:'Tahoma'; font-size:23.9741px;">Presse</text>
		<text transform="matrix(1.0011 0 0 1 1163.0645 508.6866)" style="fill:#FFFFFF; font-family:'Tahoma'; font-size:23.9741px;">Ball of Fame</text>
	</g>
	<g class="st2">
		
			<image style="overflow:visible;" width="1400" height="777" xlink:href="9175192B.jpg"  transform="matrix(0.5857 0 0 0.5851 240.25 715.4109)">
		</image>
		<text transform="matrix(0.9907 0 0 1 564.3447 1223.0037)"><tspan x="0" y="0" style="font-family:'Tahoma'; font-size:21.0656px;">23  Wolfram, Robert</tspan><tspan x="0" y="25.3" style="font-family:'Tahoma'; font-size:21.0656px;">28  Gönen, Caner</tspan><tspan x="0" y="50.6" style="font-family:'Tahoma'; font-size:21.0656px;">31  Falk, Stefan</tspan><tspan x="0" y="75.8" style="font-family:'Tahoma'; font-size:21.0656px;">41  Lobanow, Vadim</tspan><tspan x="0" y="101.1" style="font-family:'Tahoma'; font-size:21.0656px;">91  Bayerl, Nico</tspan></text>
		<text transform="matrix(0.9907 0 0 1 294.6772 1220.4675)"><tspan x="0" y="0" style="font-family:'Tahoma'; font-size:21.0656px;">1   Wendel, Christoph</tspan><tspan x="0" y="25.3" style="font-family:'Tahoma'; font-size:21.0656px;">4   Goltz, Noah</tspan><tspan x="0" y="50.6" style="font-family:'Tahoma'; font-size:21.0656px;">7   Wahlich, Markus</tspan><tspan x="0" y="75.8" style="font-family:'Tahoma'; font-size:21.0656px;">8   Seubert, Robin</tspan><tspan x="0" y="101.1" style="font-family:'Tahoma'; font-size:21.0656px;">13  Steiner, Sandra</tspan><tspan x="0" y="126.4" style="font-family:'Tahoma'; font-size:21.0656px;">18  Wendel, Julian</tspan></text>
		<g>
			<text transform="matrix(1 0 0 1 240.25 674.8992)" class="st0" style="font-family:'MyriadPro-Regular'; font-size:48px;">Ballbusters Würzburg</text>
		</g>
	</g>
</g>
<g id="Startseite_00000042717653315308511210000004769794769384468100_">
	<g id="hover">
		<rect x="244.2" y="474.1" class="st4" width="181" height="60"/>
		<rect x="425.5" y="474.1" class="st3" width="181" height="60"/>
		<rect x="604.2" y="474.1" class="st3" width="181" height="60"/>
		<rect x="784.2" y="474.1" class="st3" width="181" height="60"/>
		<rect x="965.2" y="474.1" class="st3" width="181" height="60"/>
		<rect x="1144.2" y="474.1" class="st3" width="181" height="60"/>
		<rect x="1325.2" y="474.1" class="st3" width="181" height="60"/>
		<rect x="1505.2" y="474.1" class="st3" width="181" height="60"/>
	</g>
	<g id="Text">
		<text transform="matrix(1.0011 0 0 1 306.4141 509.3416)" style="fill:#FFFFFF; font-family:'Tahoma'; font-size:23.9741px;">Start</text>
		<text transform="matrix(1.0011 0 0 1 465.4248 509.3415)" style="fill:#FFFFFF; font-family:'Tahoma'; font-size:23.9741px;">Aktuelles</text>
		<text transform="matrix(1.0011 0 0 1 633.1113 509.3413)" style="fill:#FFFFFF; font-family:'Tahoma'; font-size:23.9741px;">Ballbusters</text>
		<text transform="matrix(1.0011 0 0 1 821.3379 509.3413)" style="fill:#FFFFFF; font-family:'Tahoma'; font-size:23.9741px;">E-Hockey</text>
		<text transform="matrix(1.0011 0 0 1 994.5039 509.3414)" style="fill:#FFFFFF; font-family:'Tahoma'; font-size:23.9741px;">Bundesliga</text>
		<text transform="matrix(1.0011 0 0 1 1194.8203 509.3412)" style="fill:#FFFFFF; font-family:'Tahoma'; font-size:23.9741px;">Regeln</text>
		<text transform="matrix(1.0011 0 0 1 1381.8496 509.3416)" style="fill:#FFFFFF; font-family:'Tahoma'; font-size:23.9741px;">Bilder</text>
		<text transform="matrix(1.0011 0 0 1 1535.2031 509.3413)" style="fill:#FFFFFF; font-family:'Tahoma'; font-size:23.9741px;">Gästebuch</text>
	</g>
</g>
<g id="Header">
	
		<image style="overflow:visible;" width="354" height="355" xlink:href="../../../../Users/joerg/Desktop/logoanimiertbackgroundtransparent.gif"  transform="matrix(1 0 0 1 20.25 30.1875)">
	</image>
	
		<image style="overflow:visible;" width="464" height="94" xlink:href="../../../../Users/joerg/Desktop/schriftzugballbusters.gif"  transform="matrix(1 0 0 1 5.25 372.1875)">
	</image>
	
		<image style="display:none;overflow:visible;" width="1920" height="631" xlink:href="91751929.jpg"  transform="matrix(0.75 0 0 0.75 480.25 -0.3125)">
	</image>
</g>
<g>
	<g>
		<rect x="1330.2" y="659.8" class="st0" width="350" height="1"/>
		<rect x="1330.2" y="825.8" class="st0" width="350" height="1"/>
		<rect x="1330.2" y="983.8" class="st0" width="350" height="1"/>
		<rect x="1330.2" y="1141.8" class="st0" width="350" height="1"/>
		<g>
			<text transform="matrix(1 0 0 1 1330.2515 651.8314)"><tspan x="0" y="0" class="st0" style="font-family:'Roboto-Light'; font-size:19.9999px;">Nächste</tspan><tspan x="73.1" y="0" class="st0" style="font-family:'Roboto-Light'; font-size:19.9999px;"> </tspan><tspan x="77.6" y="0" class="st0" style="font-family:'Roboto-Light'; font-size:19.9999px;">T</tspan><tspan x="88.5" y="0" class="st0" style="font-family:'Roboto-Light'; font-size:19.9999px;">ermine</tspan></text>
		</g>
		<text transform="matrix(1 0 0 1 1338.2515 694.8314)"><tspan x="0" y="0" class="st9" style="font-family:'Roboto-Light'; font-size:15.9999px;">13</tspan><tspan x="17.7" y="0" class="st9" style="font-family:'Roboto-Light'; font-size:15.9999px; letter-spacing:3;">.</tspan><tspan x="25.4" y="0" class="st9" style="font-family:'Roboto-Light'; font-size:15.9999px;">Mai 2023 9:00 – </tspan></text>
		<text transform="matrix(1 0 0 1 1481.1147 694.8314)" class="st9" style="font-family:'Roboto-Light'; font-size:15.9999px;">20:00 Uhr</text>
		<text transform="matrix(1 0 0 1 1338.2515 748.8314)"><tspan x="0" y="0" class="st9" style="font-family:'Roboto-Light'; font-size:20.9999px;">1</tspan><tspan x="11.6" y="0" class="st9" style="font-family:'Roboto-Light'; font-size:20.9999px; letter-spacing:5;">.</tspan><tspan x="21.8" y="0" class="st9" style="font-family:'Roboto-Light'; font-size:20.9999px;">PCH-Bundesliga 4. Spieltag</tspan></text>
		<text transform="matrix(1 0 0 1 1338.2515 808.8304)" class="st9" style="font-family:'Roboto-Light'; font-size:15.9999px;">Bad Kreuznach</text>
		<text transform="matrix(1 0 0 1 1338.2515 852.8304)"><tspan x="0" y="0" class="st9" style="font-family:'Roboto-Light'; font-size:15.9999px;">20</tspan><tspan x="17.7" y="0" class="st9" style="font-family:'Roboto-Light'; font-size:15.9999px; letter-spacing:3;">.</tspan><tspan x="25.4" y="0" class="st9" style="font-family:'Roboto-Light'; font-size:15.9999px;">Mai 2023 9:30 – </tspan></text>
		<text transform="matrix(1 0 0 1 1481.1147 852.8304)" class="st9" style="font-family:'Roboto-Light'; font-size:15.9999px;">19:00 Uhr</text>
		<text transform="matrix(1 0 0 1 1338.2515 906.8304)"><tspan x="0" y="0" class="st9" style="font-family:'Roboto-Light'; font-size:20.9999px;">2</tspan><tspan x="11.6" y="0" class="st9" style="font-family:'Roboto-Light'; font-size:20.9999px; letter-spacing:5;">.</tspan><tspan x="21.8" y="0" class="st9" style="font-family:'Roboto-Light'; font-size:20.9999px;">PCH-Bundesliga 3. Spieltag</tspan></text>
		<text transform="matrix(1 0 0 1 1338.2515 966.8304)" class="st9" style="font-family:'Roboto-Light'; font-size:15.9999px;">Thüngersheim</text>
		<text transform="matrix(1 0 0 1 1338.2515 1010.8304)"><tspan x="0" y="0" class="st9" style="font-family:'Roboto-Light'; font-size:15.9999px;">24</tspan><tspan x="17.7" y="0" class="st9" style="font-family:'Roboto-Light'; font-size:15.9999px; letter-spacing:3;">.</tspan><tspan x="25.4" y="0" class="st9" style="font-family:'Roboto-Light'; font-size:15.9999px;">Juni 2023 9:00 – </tspan></text>
		<text transform="matrix(1 0 0 1 1485.0825 1010.8304)" class="st9" style="font-family:'Roboto-Light'; font-size:15.9999px;">20:00 Uhr</text>
		<text transform="matrix(1 0 0 1 1338.2515 1064.8295)"><tspan x="0" y="0" class="st9" style="font-family:'Roboto-Light'; font-size:20.9999px;">1</tspan><tspan x="11.6" y="0" class="st9" style="font-family:'Roboto-Light'; font-size:20.9999px; letter-spacing:5;">.</tspan><tspan x="21.8" y="0" class="st9" style="font-family:'Roboto-Light'; font-size:20.9999px;">PCH-Bundesliga 5. Spieltag</tspan></text>
		<text transform="matrix(1 0 0 1 1338.2515 1124.8295)" class="st9" style="font-family:'Roboto-Light'; font-size:15.9999px;">Thüngersheim</text>
	</g>
	<g>
		<rect x="1330.8" y="1219.7" class="st5" width="349.5" height="333.4"/>
		
			<image style="overflow:visible;" width="253" height="211" xlink:href="../../../../Users/joerg/Desktop/logorichter2.png"  transform="matrix(1.3834 0 0 1.3834 1330.25 1329.0106)">
		</image>
		<text transform="matrix(1 0 0 1 1346.7227 1248.313)"><tspan x="0" y="0" style="fill:#FFFFFF; font-family:'MyriadPro-Regular'; font-size:16.6008px;">Die Ballbusters und der Elektrorollstuhl-Sport </tspan><tspan x="63" y="19.9" style="fill:#FFFFFF; font-family:'MyriadPro-Regular'; font-size:16.6008px;">in Süddeutschland werden </tspan><tspan x="109.9" y="39.8" style="fill:#FFFFFF; font-family:'MyriadPro-Regular'; font-size:16.6008px;">gefördert von</tspan></text>
		<g>
			<text transform="matrix(1 0 0 1 1331.4482 1201.7889)" class="st0" style="font-family:'Roboto-Light'; font-size:19.9999px;">Sponsor</text>
		</g>
		<rect x="1330.2" y="1208.4" class="st0" width="350" height="1"/>
	</g>
	<g>
		<rect x="1330.2" y="1660.2" class="st0" width="350" height="1"/>
		<g>
			<text transform="matrix(1 0 0 1 1330.2515 1652.1937)" class="st0" style="font-family:'Roboto-Light'; font-size:19.9999px;">Spenden</text>
		</g>
		<g>
			<defs>
				<rect id="SVGID_1_" x="1330.2" y="1669.2" width="350" height="350"/>
			</defs>
			<clipPath id="SVGID_00000052786589763508576690000000355878740931996088_">
				<use xlink:href="#SVGID_1_"  style="overflow:visible;"/>
			</clipPath>
			<g style="clip-path:url(#SVGID_00000052786589763508576690000000355878740931996088_);">
				<defs>
					<rect id="SVGID_00000088840036147445271920000006782822260564891045_" x="1330.3" y="1669.2" width="350" height="350"/>
				</defs>
				<clipPath id="SVGID_00000134239659956049398940000004760212215165739169_">
					<use xlink:href="#SVGID_00000088840036147445271920000006782822260564891045_"  style="overflow:visible;"/>
				</clipPath>
				<g style="clip-path:url(#SVGID_00000134239659956049398940000004760212215165739169_);">
					
						<image style="overflow:visible;" width="350" height="350" xlink:href="91751928.jpg"  transform="matrix(1 0 0 -1 1330.2513 2019.1926)">
					</image>
				</g>
			</g>
		</g>
	</g>
	<g>
		<rect x="1330.2" y="2079.2" class="st0" width="350" height="1"/>
		<rect x="1330.3" y="2088.2" class="st7" width="58" height="55"/>
		<rect x="1388.3" y="2088.2" class="st7" width="219" height="55"/>
		<rect x="1607.3" y="2088.2" class="st7" width="72" height="55"/>
		<rect x="1330.3" y="2198.2" class="st8" width="58" height="54"/>
		<rect x="1388.3" y="2198.2" class="st8" width="219" height="54"/>
		<rect x="1607.3" y="2198.2" class="st8" width="72" height="54"/>
		<rect x="1330.3" y="2306.2" class="st8" width="58" height="54"/>
		<rect x="1388.3" y="2306.2" class="st8" width="219" height="54"/>
		<rect x="1607.3" y="2306.2" class="st8" width="72" height="54"/>
		<rect x="1607.3" y="2360.2" class="st9" width="73" height="1"/>
		<rect x="1607.3" y="2414.2" class="st9" width="73" height="1"/>
		<rect x="1607.3" y="2360.2" class="st9" width="1" height="55"/>
		<rect x="1679.2" y="2360.2" class="st9" width="1" height="55"/>
		<rect x="1388.3" y="2360.2" class="st9" width="220" height="1"/>
		<rect x="1388.3" y="2414.2" class="st9" width="220" height="1"/>
		<rect x="1388.3" y="2360.2" class="st9" width="1" height="55"/>
		<rect x="1607.3" y="2360.2" class="st9" width="1" height="55"/>
		<rect x="1330.3" y="2360.2" class="st9" width="59" height="1"/>
		<rect x="1330.3" y="2414.2" class="st9" width="59" height="1"/>
		<rect x="1330.3" y="2360.2" class="st9" width="1" height="55"/>
		<rect x="1388.3" y="2360.2" class="st9" width="1" height="55"/>
		<rect x="1607.3" y="2306.2" class="st9" width="73" height="1"/>
		<rect x="1607.3" y="2360.2" class="st9" width="73" height="1"/>
		<rect x="1607.3" y="2306.2" class="st9" width="1" height="55"/>
		<rect x="1679.2" y="2306.2" class="st9" width="1" height="55"/>
		<rect x="1388.3" y="2306.2" class="st9" width="220" height="1"/>
		<rect x="1388.3" y="2360.2" class="st9" width="220" height="1"/>
		<rect x="1388.3" y="2306.2" class="st9" width="1" height="55"/>
		<rect x="1607.3" y="2306.2" class="st9" width="1" height="55"/>
		<rect x="1330.3" y="2306.2" class="st9" width="59" height="1"/>
		<rect x="1330.3" y="2360.2" class="st9" width="59" height="1"/>
		<rect x="1330.3" y="2306.2" class="st9" width="1" height="55"/>
		<rect x="1388.3" y="2306.2" class="st9" width="1" height="55"/>
		<rect x="1607.3" y="2252.2" class="st9" width="73" height="1"/>
		<rect x="1607.3" y="2306.2" class="st9" width="73" height="1"/>
		<rect x="1607.3" y="2252.2" class="st9" width="1" height="55"/>
		<rect x="1679.2" y="2252.2" class="st9" width="1" height="55"/>
		<rect x="1388.3" y="2252.2" class="st9" width="220" height="1"/>
		<rect x="1388.3" y="2306.2" class="st9" width="220" height="1"/>
		<rect x="1388.3" y="2252.2" class="st9" width="1" height="55"/>
		<rect x="1607.3" y="2252.2" class="st9" width="1" height="55"/>
		<rect x="1330.3" y="2252.2" class="st9" width="59" height="1"/>
		<rect x="1330.3" y="2306.2" class="st9" width="59" height="1"/>
		<rect x="1330.3" y="2252.2" class="st9" width="1" height="55"/>
		<rect x="1388.3" y="2252.2" class="st9" width="1" height="55"/>
		<rect x="1607.3" y="2198.2" class="st9" width="73" height="1"/>
		<rect x="1607.3" y="2252.2" class="st9" width="73" height="1"/>
		<rect x="1607.3" y="2198.2" class="st9" width="1" height="55"/>
		<rect x="1679.2" y="2198.2" class="st9" width="1" height="55"/>
		<rect x="1388.3" y="2198.2" class="st9" width="220" height="1"/>
		<rect x="1388.3" y="2252.2" class="st9" width="220" height="1"/>
		<rect x="1388.3" y="2198.2" class="st9" width="1" height="55"/>
		<rect x="1607.3" y="2198.2" class="st9" width="1" height="55"/>
		<rect x="1330.3" y="2198.2" class="st9" width="59" height="1"/>
		<rect x="1330.3" y="2252.2" class="st9" width="59" height="1"/>
		<rect x="1330.3" y="2198.2" class="st9" width="1" height="55"/>
		<rect x="1388.3" y="2198.2" class="st9" width="1" height="55"/>
		<rect x="1607.3" y="2198.2" class="st9" width="73" height="1"/>
		<rect x="1607.3" y="2142.2" class="st9" width="1" height="57"/>
		<rect x="1679.2" y="2142.2" class="st9" width="1" height="57"/>
		<rect x="1388.3" y="2198.2" class="st9" width="220" height="1"/>
		<rect x="1388.3" y="2142.2" class="st9" width="1" height="57"/>
		<rect x="1607.3" y="2142.2" class="st9" width="1" height="57"/>
		<rect x="1330.3" y="2198.2" class="st9" width="59" height="1"/>
		<rect x="1330.3" y="2142.2" class="st9" width="1" height="57"/>
		<rect x="1388.3" y="2142.2" class="st9" width="1" height="57"/>
		<rect x="1607.3" y="2088.2" class="st7" width="73" height="1"/>
		<rect x="1607.3" y="2088.2" class="st7" width="1" height="57"/>
		<rect x="1679.2" y="2088.2" class="st7" width="1" height="57"/>
		<rect x="1388.3" y="2088.2" class="st7" width="220" height="1"/>
		<rect x="1388.3" y="2088.2" class="st7" width="1" height="57"/>
		<rect x="1607.3" y="2088.2" class="st7" width="1" height="57"/>
		<rect x="1330.3" y="2088.2" class="st7" width="59" height="1"/>
		<rect x="1330.3" y="2088.2" class="st7" width="1" height="57"/>
		<rect x="1388.3" y="2088.2" class="st7" width="1" height="57"/>
		<rect x="1607.3" y="2142.2" class="st9" width="73" height="3"/>
		<rect x="1388.3" y="2142.2" class="st9" width="220" height="3"/>
		<rect x="1330.3" y="2142.2" class="st9" width="59" height="3"/>
		<rect x="1607.3" y="2142.2" class="st9" width="73" height="3"/>
		<rect x="1388.3" y="2142.2" class="st9" width="220" height="3"/>
		<rect x="1330.3" y="2142.2" class="st9" width="59" height="3"/>
		<g>
			<text transform="matrix(1 0 0 1 1330.2515 2071.1919)"><tspan x="0" y="0" class="st0" style="font-family:'Roboto-Light'; font-size:19.9999px; letter-spacing:-1;">T</tspan><tspan x="10.8" y="0" class="st0" style="font-family:'Roboto-Light'; font-size:19.9999px;">abelle 2. Bundesliga Saison 2022/23</tspan></text>
		</g>
		<text transform="matrix(1 0 0 1 1341.2515 2117.1919)" style="fill:#FFFFFF; font-family:'Roboto-Bold'; font-size:15.9999px;">Platz</text>
		<text transform="matrix(1 0 0 1 1399.2505 2117.1919)" style="fill:#FFFFFF; font-family:'Roboto-Bold'; font-size:15.9999px;">Mannschaft</text>
		<text transform="matrix(1 0 0 1 1618.2583 2117.1919)" style="fill:#FFFFFF; font-family:'Roboto-Bold'; font-size:15.9999px;">Punkte</text>
		<text transform="matrix(1 0 0 1 1341.2671 2173.1919)" class="st9" style="font-family:'Roboto-Light'; font-size:15.9999px;">1.</text>
		<text transform="matrix(1 0 0 1 1399.2661 2173.1919)" class="st9" style="font-family:'Roboto-Light'; font-size:15.9999px;">Hurricanes Bochum</text>
		<text transform="matrix(1 0 0 1 1618.2739 2173.1919)" class="st9" style="font-family:'Roboto-Light'; font-size:15.9999px;">14</text>
		<text transform="matrix(1 0 0 1 1341.2827 2227.1919)" class="st9" style="font-family:'Roboto-Light'; font-size:15.9999px;">2.</text>
		<text transform="matrix(1 0 0 1 1399.2827 2227.1919)"><tspan x="0" y="0" class="st9" style="font-family:'Roboto-Light'; font-size:15.9999px;">Flash</tspan><tspan x="38" y="0" class="st9" style="font-family:'Roboto-Light'; font-size:15.9999px;"> </tspan><tspan x="41.6" y="0" class="st9" style="font-family:'Roboto-Light'; font-size:15.9999px;">Tigers</tspan></text>
		<text transform="matrix(1 0 0 1 1618.2896 2227.1919)" class="st9" style="font-family:'Roboto-Light'; font-size:15.9999px;">12</text>
		<text transform="matrix(1 0 0 1 1341.2993 2281.1919)" class="st9" style="font-family:'Roboto-Light'; font-size:15.9999px;">3.</text>
		<text transform="matrix(1 0 0 1 1399.2993 2281.1919)" class="st9" style="font-family:'Roboto-Light'; font-size:15.9999px;">Ruhr Rollers Essen</text>
		<text transform="matrix(1 0 0 1 1618.3062 2281.1919)" class="st9" style="font-family:'Roboto-Light'; font-size:15.9999px;">6</text>
		<text transform="matrix(1 0 0 1 1341.3149 2335.1909)" class="st9" style="font-family:'Roboto-Light'; font-size:15.9999px;">4.</text>
		<text transform="matrix(1 0 0 1 1399.3149 2335.1909)"><tspan x="0" y="0" class="st9" style="font-family:'Roboto-Light'; font-size:15.9999px;">Ballbusters </tspan><tspan x="82.1" y="0" class="st9" style="font-family:'Roboto-Light'; font-size:15.9999px;">W</tspan><tspan x="96.3" y="0" class="st9" style="font-family:'Roboto-Light'; font-size:15.9999px;">ürzbu</tspan><tspan x="135.9" y="0" class="st9" style="font-family:'Roboto-Light'; font-size:15.9999px;">r</tspan><tspan x="141.2" y="0" class="st9" style="font-family:'Roboto-Light'; font-size:15.9999px;">g</tspan></text>
		<text transform="matrix(1 0 0 1 1618.3218 2335.1909)" class="st9" style="font-family:'Roboto-Light'; font-size:15.9999px;">5</text>
		<text transform="matrix(1 0 0 1 1341.3306 2389.1909)" class="st9" style="font-family:'Roboto-Light'; font-size:15.9999px;">5.</text>
		<text transform="matrix(1 0 0 1 1399.3306 2389.1909)" class="st9" style="font-family:'Roboto-Light'; font-size:15.9999px;">Rocky Rolling Wheels Berlin</text>
		<text transform="matrix(1 0 0 1 1618.3384 2389.1909)" class="st9" style="font-family:'Roboto-Light'; font-size:15.9999px;">3</text>
	</g>
	<g>
		<rect x="1330.2" y="2475.2" class="st0" width="350" height="1"/>
		<rect x="1330.3" y="2484.2" class="st7" width="58" height="55"/>
		<rect x="1388.3" y="2484.2" class="st7" width="219" height="55"/>
		<rect x="1607.3" y="2484.2" class="st7" width="72" height="55"/>
		<rect x="1330.3" y="2594.2" class="st8" width="58" height="54"/>
		<rect x="1388.3" y="2594.2" class="st8" width="219" height="54"/>
		<rect x="1607.3" y="2594.2" class="st8" width="72" height="54"/>
		<rect x="1330.3" y="2702.2" class="st8" width="58" height="54"/>
		<rect x="1388.3" y="2702.2" class="st8" width="219" height="54"/>
		<rect x="1607.3" y="2702.2" class="st8" width="72" height="54"/>
		<rect x="1330.3" y="2810.2" class="st8" width="58" height="54"/>
		<rect x="1388.3" y="2810.2" class="st8" width="219" height="54"/>
		<rect x="1607.3" y="2810.2" class="st8" width="72" height="54"/>
		<rect x="1607.3" y="2810.2" class="st9" width="73" height="1"/>
		<rect x="1607.3" y="2864.2" class="st9" width="73" height="1"/>
		<rect x="1607.3" y="2810.2" class="st9" width="1" height="55"/>
		<rect x="1679.2" y="2810.2" class="st9" width="1" height="55"/>
		<rect x="1388.3" y="2810.2" class="st9" width="220" height="1"/>
		<rect x="1388.3" y="2864.2" class="st9" width="220" height="1"/>
		<rect x="1388.3" y="2810.2" class="st9" width="1" height="55"/>
		<rect x="1607.3" y="2810.2" class="st9" width="1" height="55"/>
		<rect x="1330.3" y="2810.2" class="st9" width="59" height="1"/>
		<rect x="1330.3" y="2864.2" class="st9" width="59" height="1"/>
		<rect x="1330.3" y="2810.2" class="st9" width="1" height="55"/>
		<rect x="1388.3" y="2810.2" class="st9" width="1" height="55"/>
		<rect x="1607.3" y="2756.2" class="st9" width="73" height="1"/>
		<rect x="1607.3" y="2810.2" class="st9" width="73" height="1"/>
		<rect x="1607.3" y="2756.2" class="st9" width="1" height="55"/>
		<rect x="1679.2" y="2756.2" class="st9" width="1" height="55"/>
		<rect x="1388.3" y="2756.2" class="st9" width="220" height="1"/>
		<rect x="1388.3" y="2810.2" class="st9" width="220" height="1"/>
		<rect x="1388.3" y="2756.2" class="st9" width="1" height="55"/>
		<rect x="1607.3" y="2756.2" class="st9" width="1" height="55"/>
		<rect x="1330.3" y="2756.2" class="st9" width="59" height="1"/>
		<rect x="1330.3" y="2810.2" class="st9" width="59" height="1"/>
		<rect x="1330.3" y="2756.2" class="st9" width="1" height="55"/>
		<rect x="1388.3" y="2756.2" class="st9" width="1" height="55"/>
		<rect x="1607.3" y="2702.2" class="st9" width="73" height="1"/>
		<rect x="1607.3" y="2756.2" class="st9" width="73" height="1"/>
		<rect x="1607.3" y="2702.2" class="st9" width="1" height="55"/>
		<rect x="1679.2" y="2702.2" class="st9" width="1" height="55"/>
		<rect x="1388.3" y="2702.2" class="st9" width="220" height="1"/>
		<rect x="1388.3" y="2756.2" class="st9" width="220" height="1"/>
		<rect x="1388.3" y="2702.2" class="st9" width="1" height="55"/>
		<rect x="1607.3" y="2702.2" class="st9" width="1" height="55"/>
		<rect x="1330.3" y="2702.2" class="st9" width="59" height="1"/>
		<rect x="1330.3" y="2756.2" class="st9" width="59" height="1"/>
		<rect x="1330.3" y="2702.2" class="st9" width="1" height="55"/>
		<rect x="1388.3" y="2702.2" class="st9" width="1" height="55"/>
		<rect x="1607.3" y="2648.2" class="st9" width="73" height="1"/>
		<rect x="1607.3" y="2702.2" class="st9" width="73" height="1"/>
		<rect x="1607.3" y="2648.2" class="st9" width="1" height="55"/>
		<rect x="1679.2" y="2648.2" class="st9" width="1" height="55"/>
		<rect x="1388.3" y="2648.2" class="st9" width="220" height="1"/>
		<rect x="1388.3" y="2702.2" class="st9" width="220" height="1"/>
		<rect x="1388.3" y="2648.2" class="st9" width="1" height="55"/>
		<rect x="1607.3" y="2648.2" class="st9" width="1" height="55"/>
		<rect x="1330.3" y="2648.2" class="st9" width="59" height="1"/>
		<rect x="1330.3" y="2702.2" class="st9" width="59" height="1"/>
		<rect x="1330.3" y="2648.2" class="st9" width="1" height="55"/>
		<rect x="1388.3" y="2648.2" class="st9" width="1" height="55"/>
		<rect x="1607.3" y="2594.2" class="st9" width="73" height="1"/>
		<rect x="1607.3" y="2648.2" class="st9" width="73" height="1"/>
		<rect x="1607.3" y="2594.2" class="st9" width="1" height="55"/>
		<rect x="1679.2" y="2594.2" class="st9" width="1" height="55"/>
		<rect x="1388.3" y="2594.2" class="st9" width="220" height="1"/>
		<rect x="1388.3" y="2648.2" class="st9" width="220" height="1"/>
		<rect x="1388.3" y="2594.2" class="st9" width="1" height="55"/>
		<rect x="1607.3" y="2594.2" class="st9" width="1" height="55"/>
		<rect x="1330.3" y="2594.2" class="st9" width="59" height="1"/>
		<rect x="1330.3" y="2648.2" class="st9" width="59" height="1"/>
		<rect x="1330.3" y="2594.2" class="st9" width="1" height="55"/>
		<rect x="1388.3" y="2594.2" class="st9" width="1" height="55"/>
		<rect x="1607.3" y="2594.2" class="st9" width="73" height="1"/>
		<rect x="1607.3" y="2538.2" class="st9" width="1" height="57"/>
		<rect x="1679.2" y="2538.2" class="st9" width="1" height="57"/>
		<rect x="1388.3" y="2594.2" class="st9" width="220" height="1"/>
		<rect x="1388.3" y="2538.2" class="st9" width="1" height="57"/>
		<rect x="1607.3" y="2538.2" class="st9" width="1" height="57"/>
		<rect x="1330.3" y="2594.2" class="st9" width="59" height="1"/>
		<rect x="1330.3" y="2538.2" class="st9" width="1" height="57"/>
		<rect x="1388.3" y="2538.2" class="st9" width="1" height="57"/>
		<rect x="1607.3" y="2484.2" class="st7" width="73" height="1"/>
		<rect x="1607.3" y="2484.2" class="st7" width="1" height="57"/>
		<rect x="1679.2" y="2484.2" class="st7" width="1" height="57"/>
		<rect x="1388.3" y="2484.2" class="st7" width="220" height="1"/>
		<rect x="1388.3" y="2484.2" class="st7" width="1" height="57"/>
		<rect x="1607.3" y="2484.2" class="st7" width="1" height="57"/>
		<rect x="1330.3" y="2484.2" class="st7" width="59" height="1"/>
		<rect x="1330.3" y="2484.2" class="st7" width="1" height="57"/>
		<rect x="1388.3" y="2484.2" class="st7" width="1" height="57"/>
		<rect x="1607.3" y="2538.2" class="st9" width="73" height="3"/>
		<rect x="1388.3" y="2538.2" class="st9" width="220" height="3"/>
		<rect x="1330.3" y="2538.2" class="st9" width="59" height="3"/>
		<rect x="1607.3" y="2538.2" class="st9" width="73" height="3"/>
		<rect x="1388.3" y="2538.2" class="st9" width="220" height="3"/>
		<rect x="1330.3" y="2538.2" class="st9" width="59" height="3"/>
		<g>
			<text transform="matrix(1 0 0 1 1330.2515 2467.1909)"><tspan x="0" y="0" class="st0" style="font-family:'Roboto-Light'; font-size:19.9999px; letter-spacing:-1;">T</tspan><tspan x="10.8" y="0" class="st0" style="font-family:'Roboto-Light'; font-size:19.9999px;">abelle 1. Bundesliga Saison 2022/23</tspan></text>
		</g>
		<text transform="matrix(1 0 0 1 1341.2515 2513.1909)" style="fill:#FFFFFF; font-family:'Roboto-Bold'; font-size:15.9999px;">Platz</text>
		<text transform="matrix(1 0 0 1 1399.2505 2513.1909)" style="fill:#FFFFFF; font-family:'Roboto-Bold'; font-size:15.9999px;">Mannschaft</text>
		<text transform="matrix(1 0 0 1 1618.2583 2513.1909)" style="fill:#FFFFFF; font-family:'Roboto-Bold'; font-size:15.9999px;">Punkte</text>
		<text transform="matrix(1 0 0 1 1341.2671 2569.1899)" class="st9" style="font-family:'Roboto-Light'; font-size:15.9999px;">1</text>
		<text transform="matrix(1 0 0 1 1399.2661 2569.1899)"><tspan x="0" y="0" class="st9" style="font-family:'Roboto-Light'; font-size:15.9999px;">Black </tspan><tspan x="41.9" y="0" class="st9" style="font-family:'Roboto-Light'; font-size:15.9999px;">K</tspan><tspan x="51.8" y="0" class="st9" style="font-family:'Roboto-Light'; font-size:15.9999px;">nights D</tspan><tspan x="109.5" y="0" class="st9" style="font-family:'Roboto-Light'; font-size:15.9999px;">r</tspan><tspan x="114.7" y="0" class="st9" style="font-family:'Roboto-Light'; font-size:15.9999px;">eieich 1</tspan></text>
		<text transform="matrix(1 0 0 1 1618.2739 2569.1899)" class="st9" style="font-family:'Roboto-Light'; font-size:15.9999px;">18</text>
		<text transform="matrix(1 0 0 1 1341.2827 2623.1899)" class="st9" style="font-family:'Roboto-Light'; font-size:15.9999px;">2</text>
		<text transform="matrix(1 0 0 1 1399.2827 2623.1899)"><tspan x="0" y="0" class="st9" style="font-family:'Roboto-Light'; font-size:15.9999px;">Star Dri</tspan><tspan x="51.9" y="0" class="st9" style="font-family:'Roboto-Light'; font-size:15.9999px;">v</tspan><tspan x="59.5" y="0" class="st9" style="font-family:'Roboto-Light'; font-size:15.9999px;">ers Bad K</tspan><tspan x="126.4" y="0" class="st9" style="font-family:'Roboto-Light'; font-size:15.9999px;">r</tspan><tspan x="131.7" y="0" class="st9" style="font-family:'Roboto-Light'; font-size:15.9999px;">euznach</tspan></text>
		<text transform="matrix(1 0 0 1 1618.2896 2623.1899)" class="st9" style="font-family:'Roboto-Light'; font-size:15.9999px;">12</text>
		<text transform="matrix(1 0 0 1 1341.2993 2677.1899)" class="st9" style="font-family:'Roboto-Light'; font-size:15.9999px;">3</text>
		<text transform="matrix(1 0 0 1 1399.2993 2677.1899)"><tspan x="0" y="0" class="st9" style="font-family:'Roboto-Light'; font-size:15.9999px;">Black </tspan><tspan x="41.9" y="0" class="st9" style="font-family:'Roboto-Light'; font-size:15.9999px;">K</tspan><tspan x="51.8" y="0" class="st9" style="font-family:'Roboto-Light'; font-size:15.9999px;">nights D</tspan><tspan x="109.5" y="0" class="st9" style="font-family:'Roboto-Light'; font-size:15.9999px;">r</tspan><tspan x="114.7" y="0" class="st9" style="font-family:'Roboto-Light'; font-size:15.9999px;">eieich 2</tspan></text>
		<text transform="matrix(1 0 0 1 1618.3062 2677.1899)" class="st9" style="font-family:'Roboto-Light'; font-size:15.9999px;">10</text>
		<text transform="matrix(1 0 0 1 1341.3149 2731.1899)" class="st9" style="font-family:'Roboto-Light'; font-size:15.9999px;">4</text>
		<text transform="matrix(1 0 0 1 1399.3149 2731.1899)" class="st9" style="font-family:'Roboto-Light'; font-size:15.9999px;">Munich Animals</text>
		<text transform="matrix(1 0 0 1 1618.3218 2731.1899)" class="st9" style="font-family:'Roboto-Light'; font-size:15.9999px;">7</text>
		<text transform="matrix(1 0 0 1 1341.3306 2785.1899)" class="st9" style="font-family:'Roboto-Light'; font-size:15.9999px;">5</text>
		<text transform="matrix(1 0 0 1 1399.3306 2785.1899)"><tspan x="0" y="0" class="st9" style="font-family:'Roboto-Light'; font-size:15.9999px;">Rolli</tspan><tspan x="29.9" y="0" class="st9" style="font-family:'Roboto-Light'; font-size:15.9999px;"> </tspan><tspan x="33.5" y="0" class="st9" style="font-family:'Roboto-Light'; font-size:15.9999px;">T</tspan><tspan x="42.2" y="0" class="st9" style="font-family:'Roboto-Light'; font-size:15.9999px;">eu</tspan><tspan x="59.3" y="0" class="st9" style="font-family:'Roboto-Light'; font-size:15.9999px;">f</tspan><tspan x="64.4" y="0" class="st9" style="font-family:'Roboto-Light'; font-size:15.9999px;">el </tspan><tspan x="80.2" y="0" class="st9" style="font-family:'Roboto-Light'; font-size:15.9999px;">L</tspan><tspan x="88.3" y="0" class="st9" style="font-family:'Roboto-Light'; font-size:15.9999px;">udwigsha</tspan><tspan x="155.9" y="0" class="st9" style="font-family:'Roboto-Light'; font-size:15.9999px;">f</tspan><tspan x="161" y="0" class="st9" style="font-family:'Roboto-Light'; font-size:15.9999px;">en</tspan></text>
		<text transform="matrix(1 0 0 1 1618.3384 2785.1899)" class="st9" style="font-family:'Roboto-Light'; font-size:15.9999px;">6</text>
		<text transform="matrix(1 0 0 1 1341.3472 2839.189)" class="st9" style="font-family:'Roboto-Light'; font-size:15.9999px;">6</text>
		<text transform="matrix(1 0 0 1 1399.3462 2839.189)"><tspan x="0" y="0" class="st9" style="font-family:'Roboto-Light'; font-size:15.9999px;">No</tspan><tspan x="20.3" y="0" class="st9" style="font-family:'Roboto-Light'; font-size:15.9999px;">r</tspan><tspan x="25.6" y="0" class="st9" style="font-family:'Roboto-Light'; font-size:15.9999px;">ding Bulls Lalendo</tspan><tspan x="152.8" y="0" class="st9" style="font-family:'Roboto-Light'; font-size:15.9999px;">r</tspan><tspan x="158.3" y="0" class="st9" style="font-family:'Roboto-Light'; font-size:15.9999px;">f</tspan></text>
		<text transform="matrix(1 0 0 1 1618.354 2839.189)" class="st9" style="font-family:'Roboto-Light'; font-size:15.9999px;">1</text>
	</g>
</g>
<g>
	<text transform="matrix(1 0 0 1 240.25 680.8988)" class="st0" style="font-family:'MyriadPro-Regular'; font-size:48px;">Willkommen bei den Ballbusters</text>
</g>
</svg>
